<?xml version="1.0" encoding="UTF-8" standalone="no"?>
<!-- Created with Inkscape (http://www.inkscape.org/) -->

<svg
   width="64"
   height="64"
   viewBox="0 0 16.933332 16.933332"
   version="1.1"
   id="svg5"
   inkscape:version="1.1 (c68e22c387, 2021-05-23)"
   sodipodi:docname="favicon.svg"
   inkscape:label="bg"
   inkscape:export-filename="C:\repos\biker\src\assets\logo192.png"
   inkscape:export-xdpi="96"
   inkscape:export-ydpi="96"
   xmlns:inkscape="http://www.inkscape.org/namespaces/inkscape"
   xmlns:sodipodi="http://sodipodi.sourceforge.net/DTD/sodipodi-0.dtd"
   xmlns="http://www.w3.org/2000/svg"
   xmlns:svg="http://www.w3.org/2000/svg">
  <sodipodi:namedview
     id="namedview7"
     pagecolor="#ffffff"
     bordercolor="#666666"
     borderopacity="1.0"
     inkscape:pageshadow="2"
     inkscape:pageopacity="0.0"
     inkscape:pagecheckerboard="0"
     inkscape:document-units="px"
     showgrid="false"
     inkscape:snap-grids="true"
     showborder="true"
     showguides="true"
     inkscape:zoom="10.24"
     inkscape:cx="31.591797"
     inkscape:cy="29.443359"
     inkscape:window-width="2498"
     inkscape:window-height="1057"
     inkscape:window-x="54"
     inkscape:window-y="760"
     inkscape:window-maximized="1"
     inkscape:current-layer="svg5"
     units="px"
     borderlayer="false"
     inkscape:snap-center="false"
     inkscape:guide-bbox="true"
     inkscape:snap-object-midpoints="true">
    <sodipodi:guide
       position="783.43378,444.26667"
       orientation="0,1"
       id="guide57249"
       inkscape:label=""
       inkscape:locked="false"
       inkscape:color="rgb(0,0,255)" />
    <sodipodi:guide
       position="67.73333,193.34426"
       orientation="-1,0"
       id="guide57253"
       inkscape:label=""
       inkscape:locked="false"
       inkscape:color="rgb(0,0,255)" />
    <sodipodi:guide
       position="-114.30826,67.73333"
       orientation="0,1"
       id="guide10962"
       inkscape:label=""
       inkscape:locked="false"
       inkscape:color="rgb(0,0,255)" />
  </sodipodi:namedview>
  <defs
     id="defs2">
    <rect
       x="40.625"
       y="276.5625"
       width="428.125"
       height="200"
       id="rect60091" />
    <inkscape:path-effect
       effect="skeletal"
       id="path-effect57346"
       is_visible="true"
       lpeversion="1"
       pattern="m 125.89317,-15.987843 c -0.30257,0.42563 -0.89355,0.5255 -1.31918,0.22294 -0.42562,-0.30255 -0.52549,-0.89354 -0.22294,-1.31917 0.30257,-0.42562 0.89355,-0.52549 1.31918,-0.22293 0.42562,0.30256 0.52549,0.89355 0.22294,1.31916 z"
       copytype="single_stretched"
       prop_scale="1"
       scale_y_rel="false"
       spacing="0"
       normal_offset="0"
       tang_offset="0"
       prop_units="false"
       vertical_pattern="false"
       hide_knot="false"
       fuse_tolerance="0" />
    <inkscape:path-effect
       effect="skeletal"
       id="path-effect57340"
       is_visible="true"
       lpeversion="1"
       pattern="m 235.04646,-100.39937 c 0.50441,-0.13516 1.02348,0.16452 1.15863,0.668934 0.13516,0.504408 -0.16452,1.023476 -0.66894,1.158633 -0.5044,0.135157 -1.02347,-0.164529 -1.15863,-0.668937 -0.13515,-0.50441 0.16453,-1.02348 0.66894,-1.15863 z"
       copytype="single_stretched"
       prop_scale="1"
       scale_y_rel="false"
       spacing="0"
       normal_offset="0"
       tang_offset="0"
       prop_units="false"
       vertical_pattern="false"
       hide_knot="false"
       fuse_tolerance="0" />
    <inkscape:path-effect
       effect="skeletal"
       id="path-effect57334"
       is_visible="true"
       lpeversion="1"
       pattern="m 175.14685,-108.24903 c 0,-0.5222 0.42382,-0.94602 0.94602,-0.94602 0.5222,0 0.94602,0.42382 0.94602,0.94602 0,0.5222 -0.42382,0.94602 -0.94602,0.94602 -0.5222,0 -0.94602,-0.42382 -0.94602,-0.94602 z"
       copytype="single_stretched"
       prop_scale="1"
       scale_y_rel="false"
       spacing="0"
       normal_offset="0"
       tang_offset="0"
       prop_units="false"
       vertical_pattern="false"
       hide_knot="false"
       fuse_tolerance="0" />
    <inkscape:path-effect
       effect="skeletal"
       id="path-effect57328"
       is_visible="true"
       lpeversion="1"
       pattern="m 105.20062,-108.06546 c 0,-0.52221 0.42382,-0.94603 0.94602,-0.94603 0.52221,0 0.94603,0.42382 0.94603,0.94603 0,0.5222 -0.42382,0.94601 -0.94603,0.94601 -0.5222,0 -0.94602,-0.42381 -0.94602,-0.94601 z"
       copytype="single_stretched"
       prop_scale="1"
       scale_y_rel="false"
       spacing="0"
       normal_offset="0"
       tang_offset="0"
       prop_units="false"
       vertical_pattern="false"
       hide_knot="false"
       fuse_tolerance="0" />
    <inkscape:path-effect
       effect="skeletal"
       id="path-effect57322"
       is_visible="true"
       lpeversion="1"
       pattern="m 105.20062,-108.06546 c 0,-0.52221 0.42382,-0.94603 0.94602,-0.94603 0.52221,0 0.94603,0.42382 0.94603,0.94603 0,0.5222 -0.42382,0.94601 -0.94603,0.94601 -0.5222,0 -0.94602,-0.42381 -0.94602,-0.94601 z"
       copytype="single_stretched"
       prop_scale="1"
       scale_y_rel="false"
       spacing="0"
       normal_offset="0"
       tang_offset="0"
       prop_units="false"
       vertical_pattern="false"
       hide_knot="false"
       fuse_tolerance="0" />
    <inkscape:path-effect
       effect="skeletal"
       id="path-effect57316"
       is_visible="true"
       lpeversion="1"
       pattern="m 105.20062,-108.06546 c 0,-0.52221 0.42382,-0.94603 0.94602,-0.94603 0.52221,0 0.94603,0.42382 0.94603,0.94603 0,0.5222 -0.42382,0.94601 -0.94603,0.94601 -0.5222,0 -0.94602,-0.42381 -0.94602,-0.94601 z"
       copytype="single_stretched"
       prop_scale="1"
       scale_y_rel="false"
       spacing="0"
       normal_offset="0"
       tang_offset="0"
       prop_units="false"
       vertical_pattern="false"
       hide_knot="false"
       fuse_tolerance="0" />
    <inkscape:path-effect
       effect="skeletal"
       id="path-effect57310"
       is_visible="true"
       lpeversion="1"
       pattern="m 105.20062,-108.06546 c 0,-0.52221 0.42382,-0.94603 0.94602,-0.94603 0.52221,0 0.94603,0.42382 0.94603,0.94603 0,0.5222 -0.42382,0.94601 -0.94603,0.94601 -0.5222,0 -0.94602,-0.42381 -0.94602,-0.94601 z"
       copytype="single_stretched"
       prop_scale="1"
       scale_y_rel="false"
       spacing="0"
       normal_offset="0"
       tang_offset="0"
       prop_units="false"
       vertical_pattern="false"
       hide_knot="false"
       fuse_tolerance="0" />
    <inkscape:path-effect
       effect="skeletal"
       id="path-effect57304"
       is_visible="true"
       lpeversion="1"
       pattern="m 105.20062,-108.06546 c 0,-0.52221 0.42382,-0.94603 0.94602,-0.94603 0.52221,0 0.94603,0.42382 0.94603,0.94603 0,0.5222 -0.42382,0.94601 -0.94603,0.94601 -0.5222,0 -0.94602,-0.42381 -0.94602,-0.94601 z"
       copytype="single_stretched"
       prop_scale="1"
       scale_y_rel="false"
       spacing="0"
       normal_offset="0"
       tang_offset="0"
       prop_units="false"
       vertical_pattern="false"
       hide_knot="false"
       fuse_tolerance="0" />
    <inkscape:path-effect
       effect="skeletal"
       id="path-effect57298"
       is_visible="true"
       lpeversion="1"
       pattern="m 105.20062,-108.06546 c 0,-0.52221 0.42382,-0.94603 0.94602,-0.94603 0.52221,0 0.94603,0.42382 0.94603,0.94603 0,0.5222 -0.42382,0.94601 -0.94603,0.94601 -0.5222,0 -0.94602,-0.42381 -0.94602,-0.94601 z"
       copytype="single_stretched"
       prop_scale="1"
       scale_y_rel="false"
       spacing="0"
       normal_offset="0"
       tang_offset="0"
       prop_units="false"
       vertical_pattern="false"
       hide_knot="false"
       fuse_tolerance="0" />
    <inkscape:path-effect
       effect="skeletal"
       id="path-effect57292"
       is_visible="true"
       lpeversion="1"
       pattern="m 105.20062,-108.06546 c 0,-0.52221 0.42382,-0.94603 0.94602,-0.94603 0.52221,0 0.94603,0.42382 0.94603,0.94603 0,0.5222 -0.42382,0.94601 -0.94603,0.94601 -0.5222,0 -0.94602,-0.42381 -0.94602,-0.94601 z"
       copytype="single_stretched"
       prop_scale="1"
       scale_y_rel="false"
       spacing="0"
       normal_offset="0"
       tang_offset="0"
       prop_units="false"
       vertical_pattern="false"
       hide_knot="false"
       fuse_tolerance="0" />
    <inkscape:path-effect
       effect="skeletal"
       id="path-effect57284"
       is_visible="true"
       lpeversion="1"
       pattern="m 105.20062,-108.06546 c 0,-0.52221 0.42382,-0.94603 0.94602,-0.94603 0.52221,0 0.94603,0.42382 0.94603,0.94603 0,0.5222 -0.42382,0.94601 -0.94603,0.94601 -0.5222,0 -0.94602,-0.42381 -0.94602,-0.94601 z"
       copytype="single_stretched"
       prop_scale="1"
       scale_y_rel="false"
       spacing="0"
       normal_offset="0"
       tang_offset="0"
       prop_units="false"
       vertical_pattern="false"
       hide_knot="false"
       fuse_tolerance="0" />
    <inkscape:path-effect
       effect="skeletal"
       id="path-effect57278"
       is_visible="true"
       lpeversion="1"
       pattern="m 105.20062,-108.06546 c 0,-0.52221 0.42382,-0.94603 0.94602,-0.94603 0.52221,0 0.94603,0.42382 0.94603,0.94603 0,0.5222 -0.42382,0.94601 -0.94603,0.94601 -0.5222,0 -0.94602,-0.42381 -0.94602,-0.94601 z"
       copytype="single_stretched"
       prop_scale="1"
       scale_y_rel="false"
       spacing="0"
       normal_offset="0"
       tang_offset="0"
       prop_units="false"
       vertical_pattern="false"
       hide_knot="false"
       fuse_tolerance="0" />
    <inkscape:path-effect
       effect="skeletal"
       id="path-effect57272"
       is_visible="true"
       lpeversion="1"
       pattern="m 105.10035,-108.46658 c 0,-0.5222 0.42381,-0.94602 0.94602,-0.94602 0.5222,0 0.94602,0.42382 0.94602,0.94602 0,0.52221 -0.42382,0.94602 -0.94602,0.94602 -0.52221,0 -0.94602,-0.42381 -0.94602,-0.94602 z"
       copytype="single_stretched"
       prop_scale="1"
       scale_y_rel="false"
       spacing="0"
       normal_offset="0"
       tang_offset="0"
       prop_units="false"
       vertical_pattern="false"
       hide_knot="false"
       fuse_tolerance="0" />
    <inkscape:path-effect
       effect="skeletal"
       id="path-effect57266"
       is_visible="true"
       lpeversion="1"
       pattern="m 105.20062,-108.06546 c 0,-0.52221 0.42382,-0.94603 0.94602,-0.94603 0.52221,0 0.94603,0.42382 0.94603,0.94603 0,0.5222 -0.42382,0.94601 -0.94603,0.94601 -0.5222,0 -0.94602,-0.42381 -0.94602,-0.94601 z"
       copytype="single_stretched"
       prop_scale="1"
       scale_y_rel="false"
       spacing="0"
       normal_offset="0"
       tang_offset="0"
       prop_units="false"
       vertical_pattern="false"
       hide_knot="false"
       fuse_tolerance="0" />
    <inkscape:path-effect
       effect="skeletal"
       id="path-effect57260"
       is_visible="true"
       lpeversion="1"
       pattern="m 105.20062,-108.06546 c 0,-0.52221 0.42382,-0.94603 0.94602,-0.94603 0.52221,0 0.94603,0.42382 0.94603,0.94603 0,0.5222 -0.42382,0.94601 -0.94603,0.94601 -0.5222,0 -0.94602,-0.42381 -0.94602,-0.94601 z"
       copytype="single_stretched"
       prop_scale="1"
       scale_y_rel="false"
       spacing="0"
       normal_offset="0"
       tang_offset="0"
       prop_units="false"
       vertical_pattern="false"
       hide_knot="false"
       fuse_tolerance="0" />
    <rect
       x="2687.5"
       y="281.25"
       width="556.25"
       height="206.25"
       id="rect33206" />
    <rect
       x="3431.25"
       y="237.5"
       width="400"
       height="75"
       id="rect32190" />
    <rect
       x="2906.25"
       y="237.5"
       width="4187.5"
       height="1581.25"
       id="rect22074" />
    <rect
       x="2568.75"
       y="150"
       width="1843.75"
       height="1456.25"
       id="rect14372" />
    <rect
       x="2568.75"
       y="150"
       width="2568.75"
       height="1200"
       id="rect12606" />
    <rect
       x="2562.5"
       y="87.5"
       width="3712.5"
       height="1168.75"
       id="rect5934" />
    <rect
       x="2801.9106"
       y="53.033009"
       width="4490.1279"
       height="1325.8252"
       id="rect2948" />
    <inkscape:path-effect
       effect="skeletal"
       id="path-effect24832"
       is_visible="true"
       lpeversion="1"
       pattern="m -172.86403,-8.0557069 c -0.30257,0.4353157 -0.89355,0.5374584 -1.31918,0.2280133 -0.42562,-0.3094349 -0.52549,-0.9138736 -0.22294,-1.3491893 0.30257,-0.4353055 0.89355,-0.5374482 1.31918,-0.2280031 0.42562,0.3094451 0.52549,0.9138838 0.22294,1.3491791 z"
       copytype="single_stretched"
       prop_scale="1"
       scale_y_rel="false"
       spacing="0"
       normal_offset="0"
       tang_offset="0"
       prop_units="false"
       vertical_pattern="false"
       hide_knot="false"
       fuse_tolerance="0" />
    <inkscape:path-effect
       effect="skeletal"
       id="path-effect24746"
       is_visible="true"
       lpeversion="1"
       pattern="m -63.710739,-94.388122 c 0.50441,-0.138233 1.02348,0.16827 1.15863,0.684159 0.13516,0.515887 -0.16452,1.046767 -0.66894,1.184999 -0.5044,0.138233 -1.02347,-0.168273 -1.15863,-0.684159 -0.13515,-0.515889 0.16453,-1.04677 0.66894,-1.184999 z"
       copytype="single_stretched"
       prop_scale="1"
       scale_y_rel="false"
       spacing="0"
       normal_offset="0"
       tang_offset="0"
       prop_units="false"
       vertical_pattern="false"
       hide_knot="false"
       fuse_tolerance="0" />
    <inkscape:path-effect
       effect="skeletal"
       id="path-effect24734"
       is_visible="true"
       lpeversion="1"
       pattern="m -123.61035,-102.41641 c 0,-0.53408 0.42382,-0.96755 0.94602,-0.96755 0.5222,0 0.94602,0.43347 0.94602,0.96755 0,0.53409 -0.42382,0.96755 -0.94602,0.96755 -0.5222,0 -0.94602,-0.43346 -0.94602,-0.96755 z"
       copytype="single_stretched"
       prop_scale="1"
       scale_y_rel="false"
       spacing="0"
       normal_offset="0"
       tang_offset="0"
       prop_units="false"
       vertical_pattern="false"
       hide_knot="false"
       fuse_tolerance="0" />
    <inkscape:path-effect
       effect="skeletal"
       id="path-effect24215"
       is_visible="true"
       lpeversion="1"
       pattern="m -193.55658,-102.22866 c 0,-0.53409 0.42382,-0.96755 0.94602,-0.96755 0.52221,0 0.94603,0.43346 0.94603,0.96755 0,0.53408 -0.42382,0.96754 -0.94603,0.96754 -0.5222,0 -0.94602,-0.43346 -0.94602,-0.96754 z"
       copytype="single_stretched"
       prop_scale="1"
       scale_y_rel="false"
       spacing="0"
       normal_offset="0"
       tang_offset="0"
       prop_units="false"
       vertical_pattern="false"
       hide_knot="false"
       fuse_tolerance="0" />
    <inkscape:path-effect
       effect="skeletal"
       id="path-effect24323"
       is_visible="true"
       lpeversion="1"
       pattern="M 0,4.9921385 C 0,2.2364781 2.2364781,0 4.9921385,0 7.747799,0 9.984277,2.2364781 9.984277,4.9921385 9.984277,7.747799 7.747799,9.984277 4.9921385,9.984277 2.2364781,9.984277 0,7.747799 0,4.9921385 Z"
       copytype="single_stretched"
       prop_scale="1"
       scale_y_rel="false"
       spacing="0"
       normal_offset="0"
       tang_offset="0"
       prop_units="false"
       vertical_pattern="false"
       hide_knot="false"
       fuse_tolerance="0" />
    <inkscape:path-effect
       effect="skeletal"
       id="path-effect23772"
       is_visible="true"
       lpeversion="1"
       pattern="M 0,4.9921385 C 0,2.2364781 2.2364781,0 4.9921385,0 7.747799,0 9.984277,2.2364781 9.984277,4.9921385 9.984277,7.747799 7.747799,9.984277 4.9921385,9.984277 2.2364781,9.984277 0,7.747799 0,4.9921385 Z"
       copytype="single_stretched"
       prop_scale="1"
       scale_y_rel="false"
       spacing="0"
       normal_offset="0"
       tang_offset="0"
       prop_units="false"
       vertical_pattern="false"
       hide_knot="false"
       fuse_tolerance="0" />
    <inkscape:path-effect
       effect="skeletal"
       id="path-effect22092"
       is_visible="true"
       lpeversion="1"
       pattern="M 0,4.9921385 C 0,2.2364781 2.2364781,0 4.9921385,0 7.747799,0 9.984277,2.2364781 9.984277,4.9921385 9.984277,7.747799 7.747799,9.984277 4.9921385,9.984277 2.2364781,9.984277 0,7.747799 0,4.9921385 Z"
       copytype="single_stretched"
       prop_scale="1"
       scale_y_rel="false"
       spacing="0"
       normal_offset="0"
       tang_offset="0"
       prop_units="false"
       vertical_pattern="false"
       hide_knot="false"
       fuse_tolerance="0" />
    <inkscape:path-effect
       effect="skeletal"
       id="path-effect20654"
       is_visible="true"
       lpeversion="1"
       pattern="m -0.87697814,-0.85438243 c 0,-2.75566037 2.23647814,-4.99213847 4.99213854,-4.99213847 2.7556605,0 4.9921385,2.2364781 4.9921385,4.99213847 0,2.75566053 -2.236478,4.99213853 -4.9921385,4.99213853 -2.7556604,0 -4.99213854,-2.236478 -4.99213854,-4.99213853 z"
       copytype="single_stretched"
       prop_scale="1"
       scale_y_rel="false"
       spacing="0"
       normal_offset="0"
       tang_offset="0"
       prop_units="false"
       vertical_pattern="false"
       hide_knot="false"
       fuse_tolerance="0" />
    <inkscape:path-effect
       effect="skeletal"
       id="path-effect20195"
       is_visible="true"
       lpeversion="1"
       pattern="M 0,4.9921385 C 0,2.2364781 2.2364781,0 4.9921385,0 7.747799,0 9.984277,2.2364781 9.984277,4.9921385 9.984277,7.747799 7.747799,9.984277 4.9921385,9.984277 2.2364781,9.984277 0,7.747799 0,4.9921385 Z"
       copytype="single_stretched"
       prop_scale="1"
       scale_y_rel="false"
       spacing="0"
       normal_offset="0"
       tang_offset="0"
       prop_units="false"
       vertical_pattern="false"
       hide_knot="false"
       fuse_tolerance="0" />
    <inkscape:path-effect
       effect="skeletal"
       id="path-effect19577"
       is_visible="true"
       lpeversion="1"
       pattern="m -128.77235,183.99968 c -2.09366,-1.79172 -2.3387,-4.94507 -0.54698,-7.03873 1.79172,-2.09366 4.94507,-2.3387 7.03872,-0.54698 2.09366,1.79172 2.33871,4.94508 0.54699,7.03873 -1.79173,2.09365 -4.94507,2.3387 -7.03873,0.54698 z"
       copytype="single_stretched"
       prop_scale="1"
       scale_y_rel="false"
       spacing="0"
       normal_offset="0"
       tang_offset="0"
       prop_units="false"
       vertical_pattern="false"
       hide_knot="false"
       fuse_tolerance="0" />
    <inkscape:path-effect
       effect="skeletal"
       id="path-effect19476"
       is_visible="true"
       lpeversion="1"
       pattern="m 384.55031,158.50292 c 2.66176,0.71322 4.24319,3.45233 3.52997,6.11409 -0.71321,2.66177 -3.45233,4.2432 -6.11409,3.52998 -2.66177,-0.71322 -4.24319,-3.45233 -3.52998,-6.1141 0.71322,-2.66176 3.45234,-4.24319 6.1141,-3.52997 z"
       copytype="single_stretched"
       prop_scale="1"
       scale_y_rel="false"
       spacing="0"
       normal_offset="0"
       tang_offset="0"
       prop_units="false"
       vertical_pattern="false"
       hide_knot="false"
       fuse_tolerance="0" />
    <inkscape:path-effect
       effect="skeletal"
       id="path-effect17842"
       is_visible="true"
       lpeversion="1"
       pattern="M 0,4.9921385 C 0,2.2364781 2.2364781,0 4.9921385,0 7.747799,0 9.984277,2.2364781 9.984277,4.9921385 9.984277,7.747799 7.747799,9.984277 4.9921385,9.984277 2.2364781,9.984277 0,7.747799 0,4.9921385 Z"
       copytype="single_stretched"
       prop_scale="1"
       scale_y_rel="false"
       spacing="0"
       normal_offset="0"
       tang_offset="0"
       prop_units="false"
       vertical_pattern="false"
       hide_knot="false"
       fuse_tolerance="0" />
    <inkscape:path-effect
       effect="skeletal"
       id="path-effect15718"
       is_visible="true"
       lpeversion="1"
       pattern="m -193.55658,-102.22866 c 0,-0.53409 0.42382,-0.96755 0.94602,-0.96755 0.52221,0 0.94603,0.43346 0.94603,0.96755 0,0.53408 -0.42382,0.96754 -0.94603,0.96754 -0.5222,0 -0.94602,-0.43346 -0.94602,-0.96754 z"
       copytype="single_stretched"
       prop_scale="1"
       scale_y_rel="false"
       spacing="0"
       normal_offset="0"
       tang_offset="0"
       prop_units="false"
       vertical_pattern="false"
       hide_knot="false"
       fuse_tolerance="0" />
    <inkscape:path-effect
       effect="skeletal"
       id="path-effect11430"
       is_visible="true"
       lpeversion="1"
       pattern="m 333.00028,431.92954 c -2.59911,0.91561 -5.45162,-0.45071 -6.36721,-3.04981 -0.91563,-2.5991 0.45068,-5.45162 3.04978,-6.36723 2.59909,-0.91563 5.45162,0.4507 6.36724,3.0498 0.91561,2.59909 -0.45071,5.45162 -3.04981,6.36724 z"
       copytype="single_stretched"
       prop_scale="1"
       scale_y_rel="false"
       spacing="0"
       normal_offset="0"
       tang_offset="0"
       prop_units="false"
       vertical_pattern="false"
       hide_knot="false"
       fuse_tolerance="0" />
    <inkscape:path-effect
       effect="skeletal"
       id="path-effect10009"
       is_visible="true"
       lpeversion="1"
       pattern="M 0,4.9921385 C 0,2.2364781 2.2364781,0 4.9921385,0 7.747799,0 9.984277,2.2364781 9.984277,4.9921385 9.984277,7.747799 7.747799,9.984277 4.9921385,9.984277 2.2364781,9.984277 0,7.747799 0,4.9921385 Z"
       copytype="single_stretched"
       prop_scale="1"
       scale_y_rel="false"
       spacing="0"
       normal_offset="0"
       tang_offset="0"
       prop_units="false"
       vertical_pattern="false"
       hide_knot="false"
       fuse_tolerance="0" />
    <inkscape:path-effect
       effect="skeletal"
       id="path-effect9777"
       is_visible="true"
       lpeversion="1"
       pattern="M 0,4.9921385 C 0,2.2364781 2.2364781,0 4.9921385,0 7.747799,0 9.984277,2.2364781 9.984277,4.9921385 9.984277,7.747799 7.747799,9.984277 4.9921385,9.984277 2.2364781,9.984277 0,7.747799 0,4.9921385 Z"
       copytype="single_stretched"
       prop_scale="1"
       scale_y_rel="false"
       spacing="0"
       normal_offset="0"
       tang_offset="0"
       prop_units="false"
       vertical_pattern="false"
       hide_knot="false"
       fuse_tolerance="0" />
    <inkscape:path-effect
       effect="skeletal"
       id="path-effect9408"
       is_visible="true"
       lpeversion="1"
       pattern="M 0,4.9921385 C 0,2.2364781 2.2364781,0 4.9921385,0 7.747799,0 9.984277,2.2364781 9.984277,4.9921385 9.984277,7.747799 7.747799,9.984277 4.9921385,9.984277 2.2364781,9.984277 0,7.747799 0,4.9921385 Z"
       copytype="single_stretched"
       prop_scale="1"
       scale_y_rel="false"
       spacing="0"
       normal_offset="0"
       tang_offset="0"
       prop_units="false"
       vertical_pattern="false"
       hide_knot="false"
       fuse_tolerance="0" />
    <inkscape:path-effect
       effect="skeletal"
       id="path-effect8668"
       is_visible="true"
       lpeversion="1"
       pattern="m -193.55658,-102.22866 c 0,-0.53409 0.42382,-0.96755 0.94602,-0.96755 0.52221,0 0.94603,0.43346 0.94603,0.96755 0,0.53408 -0.42382,0.96754 -0.94603,0.96754 -0.5222,0 -0.94602,-0.43346 -0.94602,-0.96754 z"
       copytype="single_stretched"
       prop_scale="1"
       scale_y_rel="false"
       spacing="0"
       normal_offset="0"
       tang_offset="0"
       prop_units="false"
       vertical_pattern="false"
       hide_knot="false"
       fuse_tolerance="0" />
    <inkscape:path-effect
       effect="skeletal"
       id="path-effect8574"
       is_visible="true"
       lpeversion="1"
       pattern="m -193.55658,-102.22866 c 0,-0.53409 0.42382,-0.96755 0.94602,-0.96755 0.52221,0 0.94603,0.43346 0.94603,0.96755 0,0.53408 -0.42382,0.96754 -0.94603,0.96754 -0.5222,0 -0.94602,-0.43346 -0.94602,-0.96754 z"
       copytype="single_stretched"
       prop_scale="1"
       scale_y_rel="false"
       spacing="0"
       normal_offset="0"
       tang_offset="0"
       prop_units="false"
       vertical_pattern="false"
       hide_knot="false"
       fuse_tolerance="0" />
    <inkscape:path-effect
       effect="skeletal"
       id="path-effect8537"
       is_visible="true"
       lpeversion="1"
       pattern="m -193.55658,-102.22866 c 0,-0.53409 0.42382,-0.96755 0.94602,-0.96755 0.52221,0 0.94603,0.43346 0.94603,0.96755 0,0.53408 -0.42382,0.96754 -0.94603,0.96754 -0.5222,0 -0.94602,-0.43346 -0.94602,-0.96754 z"
       copytype="single_stretched"
       prop_scale="1"
       scale_y_rel="false"
       spacing="0"
       normal_offset="0"
       tang_offset="0"
       prop_units="false"
       vertical_pattern="false"
       hide_knot="false"
       fuse_tolerance="0" />
    <inkscape:path-effect
       effect="skeletal"
       id="path-effect8533"
       is_visible="true"
       lpeversion="1"
       pattern="m -193.55658,-102.22866 c 0,-0.53409 0.42382,-0.96755 0.94602,-0.96755 0.52221,0 0.94603,0.43346 0.94603,0.96755 0,0.53408 -0.42382,0.96754 -0.94603,0.96754 -0.5222,0 -0.94602,-0.43346 -0.94602,-0.96754 z"
       copytype="single_stretched"
       prop_scale="1"
       scale_y_rel="false"
       spacing="0"
       normal_offset="0"
       tang_offset="0"
       prop_units="false"
       vertical_pattern="false"
       hide_knot="false"
       fuse_tolerance="0" />
    <inkscape:path-effect
       effect="skeletal"
       id="path-effect8363"
       is_visible="true"
       lpeversion="1"
       pattern="m -193.55658,-102.22866 c 0,-0.53409 0.42382,-0.96755 0.94602,-0.96755 0.52221,0 0.94603,0.43346 0.94603,0.96755 0,0.53408 -0.42382,0.96754 -0.94603,0.96754 -0.5222,0 -0.94602,-0.43346 -0.94602,-0.96754 z"
       copytype="single_stretched"
       prop_scale="1"
       scale_y_rel="false"
       spacing="0"
       normal_offset="0"
       tang_offset="0"
       prop_units="false"
       vertical_pattern="false"
       hide_knot="false"
       fuse_tolerance="0" />
    <inkscape:path-effect
       effect="skeletal"
       id="path-effect8359"
       is_visible="true"
       lpeversion="1"
       pattern="m 117.42956,54.466932 c 0,-1.87187 1.5192,-3.391069 3.39107,-3.391069 1.87187,0 3.39107,1.519199 3.39107,3.391069 0,1.87187 -1.5192,3.391069 -3.39107,3.391069 -1.87187,0 -3.39107,-1.519199 -3.39107,-3.391069 z"
       copytype="single_stretched"
       prop_scale="1"
       scale_y_rel="false"
       spacing="0"
       normal_offset="0"
       tang_offset="0"
       prop_units="false"
       vertical_pattern="false"
       hide_knot="false"
       fuse_tolerance="0" />
    <inkscape:path-effect
       effect="skeletal"
       id="path-effect8303"
       is_visible="true"
       lpeversion="1"
       pattern="m -193.55658,-102.22866 c 0,-0.53409 0.42382,-0.96755 0.94602,-0.96755 0.52221,0 0.94603,0.43346 0.94603,0.96755 0,0.53408 -0.42382,0.96754 -0.94603,0.96754 -0.5222,0 -0.94602,-0.43346 -0.94602,-0.96754 z"
       copytype="single_stretched"
       prop_scale="1"
       scale_y_rel="false"
       spacing="0"
       normal_offset="0"
       tang_offset="0"
       prop_units="false"
       vertical_pattern="false"
       hide_knot="false"
       fuse_tolerance="0" />
    <inkscape:path-effect
       effect="skeletal"
       id="path-effect8157"
       is_visible="true"
       lpeversion="1"
       pattern="m -193.55658,-102.22866 c 0,-0.53409 0.42382,-0.96755 0.94602,-0.96755 0.52221,0 0.94603,0.43346 0.94603,0.96755 0,0.53408 -0.42382,0.96754 -0.94603,0.96754 -0.5222,0 -0.94602,-0.43346 -0.94602,-0.96754 z"
       copytype="single_stretched"
       prop_scale="1"
       scale_y_rel="false"
       spacing="0"
       normal_offset="0"
       tang_offset="0"
       prop_units="false"
       vertical_pattern="false"
       hide_knot="false"
       fuse_tolerance="0" />
    <inkscape:path-effect
       effect="skeletal"
       id="path-effect7950"
       is_visible="true"
       lpeversion="1"
       pattern="m -193.65685,-102.6389 c 0,-0.53409 0.42381,-0.96756 0.94602,-0.96756 0.5222,0 0.94602,0.43347 0.94602,0.96756 0,0.53408 -0.42382,0.96754 -0.94602,0.96754 -0.52221,0 -0.94602,-0.43346 -0.94602,-0.96754 z"
       copytype="single_stretched"
       prop_scale="1"
       scale_y_rel="false"
       spacing="0"
       normal_offset="0"
       tang_offset="0"
       prop_units="false"
       vertical_pattern="false"
       hide_knot="false"
       fuse_tolerance="0" />
    <inkscape:path-effect
       effect="skeletal"
       id="path-effect7818"
       is_visible="true"
       lpeversion="1"
       pattern="m -193.55658,-102.22866 c 0,-0.53409 0.42382,-0.96755 0.94602,-0.96755 0.52221,0 0.94603,0.43346 0.94603,0.96755 0,0.53408 -0.42382,0.96754 -0.94603,0.96754 -0.5222,0 -0.94602,-0.43346 -0.94602,-0.96754 z"
       copytype="single_stretched"
       prop_scale="1"
       scale_y_rel="false"
       spacing="0"
       normal_offset="0"
       tang_offset="0"
       prop_units="false"
       vertical_pattern="false"
       hide_knot="false"
       fuse_tolerance="0" />
    <inkscape:path-effect
       effect="skeletal"
       id="path-effect7553"
       is_visible="true"
       lpeversion="1"
       pattern="M 0,4.9921385 C 0,2.2364781 2.2364781,0 4.9921385,0 7.747799,0 9.984277,2.2364781 9.984277,4.9921385 9.984277,7.747799 7.747799,9.984277 4.9921385,9.984277 2.2364781,9.984277 0,7.747799 0,4.9921385 Z"
       copytype="single_stretched"
       prop_scale="1"
       scale_y_rel="false"
       spacing="0"
       normal_offset="0"
       tang_offset="0"
       prop_units="false"
       vertical_pattern="false"
       hide_knot="false"
       fuse_tolerance="0" />
    <inkscape:path-effect
       effect="skeletal"
       id="path-effect7421"
       is_visible="true"
       lpeversion="1"
       pattern="m -193.55658,-102.22866 c 0,-0.53409 0.42382,-0.96755 0.94602,-0.96755 0.52221,0 0.94603,0.43346 0.94603,0.96755 0,0.53408 -0.42382,0.96754 -0.94603,0.96754 -0.5222,0 -0.94602,-0.43346 -0.94602,-0.96754 z"
       copytype="single_stretched"
       prop_scale="1"
       scale_y_rel="false"
       spacing="0"
       normal_offset="0"
       tang_offset="0"
       prop_units="false"
       vertical_pattern="false"
       hide_knot="false"
       fuse_tolerance="0" />
    <inkscape:path-effect
       effect="skeletal"
       id="path-effect7251"
       is_visible="true"
       lpeversion="1"
       pattern="M 0,4.9921385 C 0,2.2364781 2.2364781,0 4.9921385,0 7.747799,0 9.984277,2.2364781 9.984277,4.9921385 9.984277,7.747799 7.747799,9.984277 4.9921385,9.984277 2.2364781,9.984277 0,7.747799 0,4.9921385 Z"
       copytype="single_stretched"
       prop_scale="1"
       scale_y_rel="false"
       spacing="0"
       normal_offset="0"
       tang_offset="0"
       prop_units="false"
       vertical_pattern="false"
       hide_knot="false"
       fuse_tolerance="0" />
    <inkscape:path-effect
       effect="skeletal"
       id="path-effect6595"
       is_visible="true"
       lpeversion="1"
       pattern="M 0,4.9921385 C 0,2.2364781 2.2364781,0 4.9921385,0 7.747799,0 9.984277,2.2364781 9.984277,4.9921385 9.984277,7.747799 7.747799,9.984277 4.9921385,9.984277 2.2364781,9.984277 0,7.747799 0,4.9921385 Z"
       copytype="single_stretched"
       prop_scale="1"
       scale_y_rel="false"
       spacing="0"
       normal_offset="0"
       tang_offset="0"
       prop_units="false"
       vertical_pattern="false"
       hide_knot="false"
       fuse_tolerance="0" />
    <inkscape:path-effect
       effect="skeletal"
       id="path-effect5703"
       is_visible="true"
       lpeversion="1"
       pattern="M 0,4.9921385 C 0,2.2364781 2.2364781,0 4.9921385,0 7.747799,0 9.984277,2.2364781 9.984277,4.9921385 9.984277,7.747799 7.747799,9.984277 4.9921385,9.984277 2.2364781,9.984277 0,7.747799 0,4.9921385 Z"
       copytype="single_stretched"
       prop_scale="1"
       scale_y_rel="false"
       spacing="0"
       normal_offset="0"
       tang_offset="0"
       prop_units="false"
       vertical_pattern="false"
       hide_knot="false"
       fuse_tolerance="0" />
    <inkscape:path-effect
       effect="skeletal"
       id="path-effect3671"
       is_visible="true"
       lpeversion="1"
       pattern="M 0,4.9921385 C 0,2.2364781 2.2364781,0 4.9921385,0 7.747799,0 9.984277,2.2364781 9.984277,4.9921385 9.984277,7.747799 7.747799,9.984277 4.9921385,9.984277 2.2364781,9.984277 0,7.747799 0,4.9921385 Z"
       copytype="single_stretched"
       prop_scale="1"
       scale_y_rel="false"
       spacing="0"
       normal_offset="0"
       tang_offset="0"
       prop_units="false"
       vertical_pattern="false"
       hide_knot="false"
       fuse_tolerance="0" />
    <inkscape:path-effect
       effect="skeletal"
       id="path-effect3525"
       is_visible="true"
       lpeversion="1"
       pattern="M 0,4.9921385 C 0,2.2364781 2.2364781,0 4.9921385,0 7.747799,0 9.984277,2.2364781 9.984277,4.9921385 9.984277,7.747799 7.747799,9.984277 4.9921385,9.984277 2.2364781,9.984277 0,7.747799 0,4.9921385 Z"
       copytype="single_stretched"
       prop_scale="1"
       scale_y_rel="false"
       spacing="0"
       normal_offset="0"
       tang_offset="0"
       prop_units="false"
       vertical_pattern="false"
       hide_knot="false"
       fuse_tolerance="0" />
    <inkscape:path-effect
       effect="skeletal"
       id="path-effect3521"
       is_visible="true"
       lpeversion="1"
       pattern="M 0,4.9921385 C 0,2.2364781 2.2364781,0 4.9921385,0 7.747799,0 9.984277,2.2364781 9.984277,4.9921385 9.984277,7.747799 7.747799,9.984277 4.9921385,9.984277 2.2364781,9.984277 0,7.747799 0,4.9921385 Z"
       copytype="single_stretched"
       prop_scale="1"
       scale_y_rel="false"
       spacing="0"
       normal_offset="0"
       tang_offset="0"
       prop_units="false"
       vertical_pattern="false"
       hide_knot="false"
       fuse_tolerance="0" />
    <inkscape:path-effect
       effect="skeletal"
       id="path-effect1831"
       is_visible="true"
       lpeversion="1"
       pattern="M 0,4.9921385 C 0,2.2364781 2.2364781,0 4.9921385,0 7.747799,0 9.984277,2.2364781 9.984277,4.9921385 9.984277,7.747799 7.747799,9.984277 4.9921385,9.984277 2.2364781,9.984277 0,7.747799 0,4.9921385 Z"
       copytype="single_stretched"
       prop_scale="1"
       scale_y_rel="false"
       spacing="0"
       normal_offset="0"
       tang_offset="0"
       prop_units="false"
       vertical_pattern="false"
       hide_knot="false"
       fuse_tolerance="0" />
    <inkscape:path-effect
       effect="skeletal"
       id="path-effect44"
       is_visible="true"
       lpeversion="1"
       pattern="M 0,4.9921382 C 0,2.2364779 2.2364779,0 4.9921382,0 c 2.7556604,0 4.9921383,2.2364779 4.9921383,4.9921382 0,2.7556604 -2.2364779,4.9921383 -4.9921383,4.9921383 C 2.2364779,9.9842765 0,7.7477986 0,4.9921382 Z"
       copytype="single_stretched"
       prop_scale="1"
       scale_y_rel="false"
       spacing="0"
       normal_offset="0"
       tang_offset="0"
       prop_units="false"
       vertical_pattern="false"
       hide_knot="false"
       fuse_tolerance="0" />
  </defs>
  <rect
     style="opacity:1;fill:#001529;fill-opacity:1;stroke-width:2.49506;stroke-linecap:round;stroke-linejoin:round"
     id="rect10986"
     width="16.866516"
     height="16.933332"
     x="0.06682831"
     y="-2.7755576e-17"
     ry="0" />
  <g
     inkscape:label="bike"
     inkscape:groupmode="layer"
     id="layer1"
     style="display:inline" />
  <g
     aria-label="B"
     transform="matrix(0.98744146,0.01215918,-0.01545964,1.0125279,0,0)"
     id="text64301"
     style="font-size:11.5475px;line-height:1.25;font-family:'Road Rage';-inkscape-font-specification:'Road Rage';fill:#ff8a6e;stroke-width:0.0866068">
    <path
       d="m 7.5393961,11.660708 -0.096229,0.04811 c -0.1058521,0 -0.4234083,0.01925 -0.4811458,0.134721 -0.086606,0 -0.1635896,0.02887 -0.2501958,0.0096 l -0.028869,0.02887 c -0.06736,-0.0096 -0.1443437,0 -0.2020812,0.02887 l -0.1058521,-0.0096 -0.028869,0.02887 c -0.115475,0 -0.1635896,0.06736 -0.2598188,0.134721 L 5.9804833,12.01676 c -0.1250979,0.05774 -0.23095,0.144343 -0.3560479,0.202081 l 0.019246,-0.02887 -0.086606,0.0096 c -0.028869,0.01925 -0.06736,0.05774 -0.1058521,0.06736 H 5.249142 v 0.0096 l -0.076983,0.06736 v 0.0096 c -0.06736,0.01925 -0.1539667,0.02887 -0.2117042,0.06736 l -0.076983,-0.0096 -0.019246,0.03849 -0.086606,-0.01925 -0.019246,0.02887 -0.096229,0.0096 -0.019246,0.02887 H 4.5081774 c -0.096229,0.06736 -0.1539666,0.105853 -0.2694416,0.105853 -0.076983,0.02887 -0.1539667,0.07698 -0.23095,0.105852 -0.038492,0 -0.096229,-0.01925 -0.1347208,-0.0096 l -0.1347209,0.02887 c -0.038492,0.04811 -0.086606,0.08661 -0.1347208,0.125098 l -0.1250979,0.02887 -0.06736,0.06736 -0.115475,-0.0096 -0.086606,0.03849 c -0.038492,0 -0.076983,-0.0096 -0.115475,-0.0096 -0.057737,0.03849 -0.1539666,0.06736 -0.2213271,0.05774 l -0.086606,0.04811 -0.096229,-0.01924 -0.00962,0.03849 0.086606,0.05774 0.076983,-0.03849 0.1635896,0.01925 0.1539666,-0.07698 0.00962,0.04811 c 0.057737,0.01925 0.105852,0.03849 0.1635895,0.03849 l 0.086606,-0.05774 c 0.019246,0.01925 0.057737,0.05774 0.019246,0.07698 l 0.019246,0.04811 c 0.048115,0.0096 0.1924584,0.0096 0.23095,0.04812 0.115475,-0.09623 0.2983104,-0.07698 0.4426542,-0.05774 l 0.076983,-0.02887 0.1250979,0.0096 c 0.057737,-0.01924 0.125098,-0.03849 0.1924584,-0.03849 l 0.096229,0.0096 v 0.03849 l -0.019246,0.04811 -0.1058521,-0.04811 -0.019246,0.04811 -0.028869,0.01925 -0.057737,0.0096 c -0.028869,-0.0096 -0.06736,-0.0096 -0.096229,-0.0096 -0.048115,0.02887 -0.096229,0.05774 -0.1539667,0.07698 h -0.057737 l -0.048115,0.04811 -0.076983,-0.0096 c -0.1443437,0 -0.2790646,0.05774 -0.4137854,0.04811 l -0.028869,0.02887 c -0.1539666,-0.02887 -0.452277,0.134721 -0.5869979,0.02887 l -0.048115,0.07698 h -0.057737 l -0.086606,0.04812 c -0.06736,-0.01925 -0.1347208,-0.0096 -0.2020812,-0.0096 -0.06736,0 -0.1732125,-0.02887 -0.23095,0.0096 -0.06736,0.0096 -0.1443438,0.0096 -0.2117042,0 l -0.06736,0.02887 -0.028869,0.03849 0.1250979,0.03849 0.076983,-0.03849 0.1058521,0.03849 H 2.1794317 l -0.086606,0.04811 -0.115475,-0.03849 c -0.057737,0.02887 -0.115475,0.05774 -0.1828354,0.06736 -0.048115,-0.01925 -0.096229,-0.02887 -0.1443437,-0.03849 l -0.1058521,0.03849 -0.06736,-0.02887 c -0.06736,0.0096 -0.1443438,0.0096 -0.2020813,0.04812 l -0.096229,-0.0096 c -0.028869,0 -0.06736,0.0096 -0.096229,0.01925 0.096229,0.02887 0.2117042,0.03849 0.3175562,0.03849 0.038492,0 0.086606,-0.0096 0.115475,-0.02887 l 0.086606,0.01925 0.00962,-0.02887 c 0.076983,0.01925 0.1732125,0.0096 0.2501958,0.01925 l 0.06736,-0.02887 0.057737,0.05774 c 0.2020813,0 0.4137854,-0.0096 0.6158667,-0.0096 0.06736,0 0.1732125,0.03849 0.2501958,0.04811 l 0.057737,-0.08661 c 0.086606,0.01925 0.4234083,0.03849 0.4619,0.06736 l 0.1058521,0.0096 c 0.1058521,0 0.2020812,-0.01925 0.2983104,-0.02887 l 0.057737,-0.02887 c 0.1443437,0.03849 0.3175562,-0.01925 0.4619,0 0.028869,0.0096 0.076983,0.02887 0.1058521,0.01925 l 0.06736,-0.04811 c 0.019246,0.0096 0.086606,0.05774 0.105852,0.05774 l 0.019246,-0.01925 0.076983,0.0096 0.06736,-0.09623 h 0.019246 c 0.048115,0.0096 0.096229,0.02887 0.1443437,0.01925 l -0.028869,0.04811 H 4.777614 l -0.019246,0.04811 0.00962,0.04812 0.1347208,0.01925 0.096229,-0.03849 0.105852,0.0096 v -0.07698 l 0.076983,-0.02887 -0.019246,-0.07698 0.06736,-0.02887 c 0.00962,0.05774 0.019246,0.115475 0.038492,0.16359 l 0.1250979,0.05774 0.076983,-0.07698 -0.057737,-0.04811 c 0.038492,-0.0096 0.076983,-0.03849 0.1058521,-0.06736 l -0.019246,-0.07698 0.096229,0.01925 -0.00962,0.03849 c 0.076983,0 0.1539666,0 0.23095,0.0096 l 0.096229,-0.02887 c 0.1250979,0.02887 0.2501958,-0.01925 0.3656708,0.01925 0.06736,-0.04811 0.1828355,-0.04811 0.2598188,-0.08661 h 0.00962 l 0.048115,-0.03849 c 0.086606,0.0096 0.2790646,0.0096 0.3560479,-0.02887 l 0.00962,-0.02887 c 0.048115,0 0.115475,0 0.1635896,0.0096 l 0.096229,-0.03849 c 0.028869,0.0096 0.06736,-0.0096 0.096229,-0.01925 l 0.06736,0.0096 0.096229,-0.03849 h 0.1250979 v -0.08661 l 0.06736,-0.03849 -0.019246,-0.07698 0.076983,-0.04811 c 0.019246,0.05774 0.048115,0.115475 0.048115,0.182836 0.048115,0 0.096229,0.01925 0.1443437,0.03849 l 0.076983,-0.06736 -0.06736,-0.05774 c 0.048114,-0.01924 0.096229,-0.04811 0.1250979,-0.08661 l -0.019246,-0.06736 0.096229,0.0096 v 0.04811 c 0.1347208,-0.03849 0.3175562,-0.02887 0.4619,-0.02887 0.1058521,0 0.2117042,-0.02887 0.3175562,-0.02887 l 0.038492,-0.03849 c 0.086606,-0.01925 0.23095,-0.05774 0.2886875,-0.125098 l 0.06736,0.0096 c 0.057737,0 0.3175562,-0.02887 0.3271792,-0.09623 0.057737,-0.0096 0.1250979,-0.0096 0.1828354,0 l 0.2020813,-0.07698 0.01924,-0.202082 c -0.057737,0 -0.1154742,0.01925 -0.1732117,0.03849 v 0.02887 l -0.06736,0.08661 -0.038492,-0.03849 c -0.057737,0 -0.1250979,-0.02887 -0.1732125,-0.06736 v -0.04811 c 0.06736,-0.0096 0.1539666,-0.03849 0.2213271,-0.02887 l 0.019246,-0.03849 h 0.048115 l 0.038492,-0.03849 0.057737,0.0096 c 0.096229,0 0.2020811,-0.02887 0.2886871,-0.06736 0.04811,0.0096 0.192459,-0.02887 0.211705,-0.07698 0.07698,-0.02887 0.163589,-0.0096 0.23095,-0.05774 0.02887,0.0096 0.07698,0.02887 0.105852,0.01925 l 0.02887,-0.03849 h 0.09623 c 0.05774,-0.04811 0.125097,-0.153966 0.211704,-0.163589 v 0.05774 l 0.03849,0.07698 -0.03849,0.05774 -0.09623,0.0096 -0.03849,-0.03849 -0.0096,-0.03849 -0.02887,0.09623 -0.02887,0.01925 -0.09623,0.01924 -0.03849,0.03849 c -0.115475,0.03849 -0.240573,0.03849 -0.346425,0.09623 h -0.02887 l -0.03849,-0.03849 -0.07698,0.05774 c -0.04811,0.0096 -0.105852,0.02887 -0.153967,0.01925 l -0.06736,0.03849 c 0.01925,0.05774 0.01925,0.192458 0.07698,0.221327 l 0.07698,-0.03849 c 0.01924,-0.04811 0.04811,-0.105852 0.08661,-0.144344 l 0.173212,0.105852 0.08661,-0.05774 h 0.0096 l 0.08661,-0.06736 0.09623,-0.0096 0.01925,-0.04811 c 0.07698,-0.03849 0.182835,-0.01925 0.23095,-0.09623 l 0.144343,-0.02887 0.08661,-0.06736 h 0.0096 l 0.09623,-0.03849 c -0.04811,-0.02887 -0.09623,-0.06736 -0.125098,-0.105852 v -0.134721 c 0.01925,-0.01925 0.05774,-0.05774 0.09623,-0.05774 0.0096,0 0.01925,0 0.02887,0.0096 l -0.07698,0.06736 v 0.0096 l 0.0096,0.105852 h 0.04811 l 0.04811,-0.09623 v 0.03849 c 0.03849,0.05774 0.08661,0.115475 0.153967,0.115475 0.02887,0 0.134721,-0.03849 0.16359,-0.05774 0.04811,-0.05774 0.105852,-0.09623 0.182835,-0.08661 0.04811,-0.03849 0.105852,-0.06736 0.16359,-0.08661 l 0.05774,0.0096 0.09623,-0.04811 0.02887,-0.04812 0.07698,0.0096 0.09623,-0.04811 h 0.02887 l 0.03849,-0.07698 c -0.105852,-0.03849 -0.23095,-0.03849 -0.336802,-0.04811 l -0.202081,0.06736 v 0.0096 h -0.05774 c 0.02887,-0.01925 0.06736,-0.06736 0.105852,-0.07698 l 0.05774,-0.07698 c 0.05774,-0.01925 0.192458,-0.07698 0.23095,-0.125098 l -0.0096,0.07698 c 0.04811,0.01924 0.105852,0.03849 0.163589,0.03849 0.08661,0 0.173213,-0.05774 0.269442,-0.05774 -0.01925,0.04811 -0.06736,0.08661 -0.105852,0.115475 0.04811,-0.0096 0.16359,-0.03849 0.16359,-0.09623 0,-0.02887 -0.0096,-0.04812 -0.02887,-0.06736 l -0.09623,-0.01925 -0.06736,-0.05774 c 0.16359,-0.105852 0.259819,-0.144344 0.404163,-0.288688 v -0.0096 l 0.07698,-0.07698 v -0.0096 c 0.08661,-0.06736 0.192458,-0.115475 0.250196,-0.211704 0.02887,-0.06736 0,-0.125098 0.0096,-0.192458 0.05774,0 0.105852,-0.01925 0.144344,-0.06736 h 0.06736 l 0.01925,-0.08661 0.07698,-0.07698 -0.0096,-0.05774 0.07698,0.05774 -0.05774,0.08661 -0.0096,0.04811 -0.04811,0.07698 -0.08661,0.05774 v 0.02887 l 0.08661,-0.0096 c 0.02887,-0.04811 0.08661,-0.105852 0.144343,-0.125098 l 0.0096,-0.153966 0.04811,-0.03849 c 0.02887,-0.06736 0.08661,-0.134721 0.144344,-0.192458 l -0.07698,-0.06736 0.09623,-0.09623 0.04812,0.115475 c -0.03849,0.125098 -0.05774,0.259819 -0.115475,0.384917 h -0.0096 l -0.105852,0.04811 -0.03849,0.105852 0.02887,0.09623 0.09623,-0.04811 h 0.02887 c 0.03849,-0.05774 0.05774,-0.134721 0.08661,-0.202081 0.134721,-0.06736 0.09623,-0.269442 0.240573,-0.32718 0.0096,-0.04811 0.04812,-0.192458 0.105852,-0.211704 l 0.02887,-0.5966205 -0.03849,-0.076983 c 0.0096,-0.057737 -0.06736,-0.2886875 -0.08661,-0.3368021 l -0.07698,-0.06736 V 8.9951599 C 13.996373,8.8219474 13.890521,8.8893078 13.746177,8.629489 L 13.640325,8.6006203 C 13.476735,8.4370307 13.322769,8.4947682 13.245786,8.408162 13.188048,8.3792932 13.091819,8.3696703 13.06295,8.3023099 12.908983,8.2830641 12.793508,8.2734411 12.649165,8.2157036 l -0.03849,-0.086606 h 0.115475 l 0.06736,-0.076983 0.09623,-0.00962 v -0.028869 c 0.08661,-0.028869 0.153966,-0.086606 0.23095,-0.1250979 l 0.03849,-0.1250979 -0.03849,-0.076983 h -0.09623 c -0.04811,0.019246 -0.09623,0.06736 -0.125097,0.115475 v 0.00962 l -0.04812,-0.00962 c -0.02887,0 -0.05774,0.00962 -0.05774,0.038492 -0.06736,0.048115 -0.13472,0.096229 -0.182835,0.1635896 l -0.04812,-0.06736 c -0.01924,0.019246 -0.05774,0.038492 -0.08661,0.038492 -0.0096,0 -0.01925,0 -0.02887,-0.00962 0.03849,-0.1058521 0.182836,-0.076983 0.23095,-0.1732125 0.08661,-0.00962 0.16359,-0.06736 0.250196,-0.057737 l 0.02887,-0.06736 0.06736,-0.00962 c 0.08661,-0.115475 0.134721,-0.2020813 0.279065,-0.2213271 v -0.00962 l 0.09623,-0.038492 h 0.02887 l -0.05774,0.1058521 -0.09623,0.019246 c -0.02887,0.028869 -0.04811,0.06736 -0.06736,0.1058521 l 0.03849,0.048115 -0.0096,0.06736 c 0.03849,0.00962 0.08661,0.019246 0.115475,0.038492 0.08661,-0.086606 0.09623,-0.1250979 0.115475,-0.2501958 0.04811,-0.00962 0.09623,-0.028869 0.144343,-0.019246 l 0.05774,-0.086606 c 0.07698,-0.048115 0.125098,-0.1058521 0.182835,-0.1828354 l 0.08661,-0.048115 0.0096,-0.019246 0.09623,-0.06736 0.05774,-0.115475 C 14.429404,6.791512 14.313929,6.6471683 14.44865,6.3873495 v -0.00962 c 0,-0.038492 0,-0.096229 0.04811,-0.1058521 l 0.02887,-0.06736 c 0,-0.115475 -0.04811,-0.1732125 -0.09623,-0.2694416 v -0.019246 l -0.03849,-0.06736 -0.06736,-0.038492 -0.0096,-0.086606 -0.04811,-0.086606 h -0.0096 C 14.16001,5.4635533 14.006044,5.5116678 13.967552,5.376947 13.909812,5.31921 13.852077,5.280718 13.775094,5.2518491 c -0.01925,-0.057737 -0.04811,-0.1250979 -0.09623,-0.1732125 -0.06736,-0.019246 -0.125098,-0.048115 -0.182836,-0.086606 -0.03849,0 -0.07698,-0.00962 -0.105852,-0.00962 l -0.0096,-0.028869 C 13.207294,4.8573058 13.014836,4.7610767 12.832,4.6840933 l -0.08661,0.038492 C 12.562558,4.6937162 12.456706,4.5782413 12.30274,4.5397496 l -0.04811,-0.057737 c -0.05774,-0.00962 -0.115475,-0.00962 -0.173212,-0.00962 l -0.08661,-0.048115 -0.09623,0.048115 -0.03849,-0.048115 c -0.02887,0 -0.06736,-0.00962 -0.09623,-0.00962 0.0096,-0.00962 0.0096,-0.00962 0.0096,-0.019246 0,-0.019246 0,-0.028869 -0.01925,-0.028869 0,-0.019246 0.01925,-0.086606 -0.0096,-0.086606 -0.02887,0 -0.07698,0.067361 -0.09623,0.086606 l -0.0096,0.028869 c -0.05774,0 -0.125097,-0.00962 -0.182835,-0.019246 0.02887,-0.028869 0.03849,-0.057737 0.05774,-0.096229 0,-0.028869 0.0096,-0.057737 0.03849,-0.06736 0.07698,-0.076983 0.115475,-0.1924583 0.16359,-0.2886875 0.01925,-0.00962 0.08661,-0.038492 0.08661,-0.076983 0,-0.00962 -0.03849,-0.00962 -0.04812,-0.00962 h -0.01924 c -0.03849,0.038492 -0.06736,0.086606 -0.09623,0.1347208 -0.05774,0.019246 -0.0096,0.1347208 -0.08661,0.1443438 -0.06736,0.06736 -0.125098,0.1635895 -0.182835,0.2598187 -0.03849,-0.00962 -0.07698,-0.00962 -0.115475,-0.00962 0,-0.019246 0.01925,-0.028869 0.03849,-0.028869 0.02887,-0.06736 0.09623,-0.1250979 0.09623,-0.2020812 0,-0.00962 -0.0096,-0.019246 -0.01925,-0.019246 l -0.05774,-0.048115 0.05774,-0.057737 0.0096,-0.048115 c 0.0096,-0.00962 0.02887,-0.038492 0.02887,-0.057737 0,-0.00962 -0.0096,-0.00962 -0.01924,-0.00962 -0.03849,0 -0.07698,0.019246 -0.105852,0.028869 0,0.048115 -0.0096,0.1058521 -0.02887,0.1443438 v 0.019246 c 0,0.028869 -0.06736,0.019246 -0.06736,0.086606 0,0 0,0.019246 -0.0096,0.019246 -0.0096,0 -0.02887,-0.057737 -0.02887,-0.06736 l -0.03849,-0.019246 -0.04812,-0.076983 c 0.01925,-0.057737 0.06736,-0.1058521 0.105853,-0.1443437 v -0.019246 c 0,-0.019246 0,-0.048115 0.01924,-0.057737 l 0.02887,-0.096229 0.04811,-0.038492 c 0,-0.057737 0.04811,-0.06736 0.04811,-0.1539666 0,-0.038492 0.03849,-0.057737 0.03849,-0.096229 0.03849,-0.028869 0.06736,-0.086606 0.07698,-0.1347208 l -0.03849,-0.057737 -0.115475,0.096229 c 0.07698,-0.2020812 0.13472,-0.4041625 0.269441,-0.577375 l -0.05774,-0.057737 -0.04812,0.057737 C 11.53291,2.6151663 11.60989,2.422708 11.696496,2.2687413 l 0.06736,-0.048115 0.0096,-0.076983 h -0.0096 c -0.05774,0 -0.125098,0.1443438 -0.144343,0.1924583 l -0.08661,0.076983 c -0.02887,0.086606 -0.105852,0.1443437 -0.153966,0.2117041 0.0096,0 0.02887,0.00962 0.02887,0.028869 0,0.00962 -0.0096,0.00962 -0.01924,0.00962 l -0.03849,-0.028869 v 0.028869 c -0.0096,0 -0.03849,0 -0.03849,0.019246 0,0.019246 0.02887,0.038492 0.04811,0.048115 -0.04811,0.057737 -0.125098,0.076983 -0.173213,0.1347208 -0.01924,0.086606 -0.13472,0.2020813 -0.192458,0.2790646 -0.02887,0 -0.02887,0.028869 -0.01925,0.048115 h -0.0096 c -0.03849,0 -0.08661,0.076983 -0.09623,0.115475 -0.08661,0.038492 -0.05774,0.1828354 -0.163589,0.2020812 v 0.028869 c 0,0.028869 -0.01925,0.028869 -0.04812,0.028869 -0.02887,0.086606 -0.06736,0.2213271 -0.144344,0.2790646 -0.03849,0.096229 -0.04811,0.1347208 -0.115475,0.2117042 -0.03849,0 -0.04811,0.038492 -0.04811,0.06736 l -0.03849,0.086606 c -0.03849,0.019246 -0.07698,0.057737 -0.105852,0.096229 v 0.019246 c -0.153967,0 -0.3079334,0.00962 -0.4426542,0.00962 l -0.028869,0.019246 c -0.096229,0.019246 -0.1443437,0 -0.2405729,0.00962 l -0.086606,0.038492 C 9.2907669,4.4146517 9.156046,4.3857829 9.0309481,4.3857829 l -0.00962,0.028869 H 8.8577356 l -0.086606,0.038492 h -0.144344 l -0.038492,0.057737 c -0.076983,-0.00962 -0.1635896,0.00962 -0.2405729,-0.00962 l -0.086606,0.038492 c -0.1250979,0 -0.2020812,-0.00962 -0.3175562,0.057737 -0.06736,-0.00962 -0.1443438,0 -0.2117042,0.019246 l -0.076983,0.057737 -0.096229,0.00962 -0.057737,0.038492 c -0.038492,0.019246 -0.086606,0.00962 -0.1250979,0 l -0.076983,0.028869 c -0.1924583,0 -0.3656708,0.096229 -0.5581292,0.086606 l -0.048115,0.096229 c -0.048115,-0.00962 -0.1058521,0.00962 -0.1539667,0.00962 -0.115475,0.096229 -0.2983104,0.057737 -0.4041625,0.1732125 -0.057737,0.00962 -0.115475,-0.00962 -0.1828354,-0.00962 -0.057737,0 -0.1250979,0.019246 -0.1443438,0.086606 -0.057737,0.019246 -0.115475,0.057737 -0.1732125,0.048115 l -0.06736,0.028869 h -0.105852 l -0.019246,0.048115 0.048115,0.076983 0.028869,-0.038492 c 0.2405729,-0.00962 0.4907687,-0.028869 0.7313416,-0.028869 l 0.038492,-0.038492 c 0.4137854,0.00962 0.8179479,-0.096229 1.2317333,-0.096229 h 0.048114 l 0.00962,0.06736 c -0.076983,0.00962 -0.125098,0 -0.2020813,0 l -0.096229,0.00962 -0.057737,0.038492 c 0.1732124,0.028869 0.3271791,-0.038492 0.4907687,-0.019246 l 0.028869,0.038492 c -0.038492,0.019246 -0.086606,0.048115 -0.105852,0.086606 -0.115475,0.019246 -0.2213271,0.048115 -0.3368021,0.048115 0.057737,0.019246 0.1058521,0.048114 0.1539666,0.076983 h 0.019246 c -0.06736,0.048115 -0.1539667,0.038492 -0.23095,0.038492 -0.086606,0 -0.2983104,0.057737 -0.3752938,0.1250979 0.038492,0.019246 0.076983,0.038492 0.125098,0.038492 0.048114,0 0.086606,-0.019246 0.1250979,-0.048114 0.115475,0 0.2117041,-0.048115 0.3271791,-0.048115 0.5196375,0 1.0104062,-0.1539667 1.5396666,-0.1347209 l 0.048115,0.028869 0.019246,-0.038492 h 0.096229 l 0.019246,0.086606 0.096229,0.019246 0.038492,0.038492 v 0.057737 l -0.048115,0.086606 v 0.038492 l -0.076983,0.019246 c -0.00962,0.06736 -0.028869,0.1347208 -0.057737,0.1924583 0.00962,0.028869 -0.019246,0.115475 -0.028869,0.1443438 L 9.0117023,6.22376 c -0.028869,0.06736 -0.028869,0.1539666 -0.076983,0.2117041 -0.1250979,0.076983 -0.115475,0.23095 -0.1443438,0.3560479 l -0.057737,0.086606 v 0.019246 l -0.028869,-0.028869 -0.086606,0.028869 -0.00962,0.048115 0.048115,0.1347208 -0.076983,0.038492 c -0.048115,0.096229 -0.115475,0.1828354 -0.125098,0.2886875 l -0.076983,0.057737 c -0.028869,0.057737 -0.06736,0.105852 -0.1058521,0.1539666 -0.028869,0.1250979 -0.086606,0.23095 -0.1347208,0.346425 l 0.086606,0.048115 -0.038492,0.048115 -0.096229,0.028869 v 0.048115 c 0,0.06736 -0.00962,0.1443438 -0.086606,0.1635896 -0.00962,0.086606 -0.06736,0.1443437 -0.06736,0.23095 v 0.019246 l -0.3175563,0.096229 h -0.06736 l 0.038492,-0.00962 c 0.00962,-0.00962 -0.1058521,-0.038492 -0.1058521,-0.038492 -0.00962,-0.00962 -0.038492,-0.00962 -0.057737,0 0,0.019246 0.019246,0.038492 0.048115,0.048115 -0.038492,0 -0.06736,0.00962 -0.076983,0.019246 -0.00962,0.019246 0.057737,0.038492 0.076983,0.038492 l 0.06736,-0.019246 -0.038492,0.048115 -0.057737,0.019246 c -0.019246,0.019246 -0.028869,0.038492 -0.076983,0.038492 l -0.06736,0.048115 c 0,0 -0.028869,0 -0.028869,0.00962 l 0.06736,0.028869 0.1058521,-0.00962 c 0,-0.028869 0.057737,-0.028869 0.086606,-0.019246 l 0.06736,-0.038492 0.1828354,0.019246 -0.057737,0.076983 h -0.019246 v 0.00962 c -0.038492,0.028869 -0.076983,0.048115 -0.1443438,0.038492 -0.076983,0.019246 -0.1347208,0.028869 -0.2213271,0.057737 l 0.019246,0.019246 c -0.00962,0.00962 -0.048115,0.019246 -0.086606,0.028869 0,-0.019246 -0.028869,-0.028869 -0.048114,-0.028869 l -0.038492,-0.00962 c -0.028869,0.048115 -0.086606,0 -0.115475,0.057737 l -0.115475,0.048115 c -0.086606,-0.00962 -0.1347208,0.057737 -0.057737,0.06736 l -0.086606,0.019246 -0.076983,0.038492 c 0,0.00962 0.019246,0.019246 0.019246,0.019246 0.028869,0.00962 0.2598188,-0.028869 0.2983105,-0.028869 v 0.019246 C 6.7022024,9.3800765 6.403892,9.5436661 6.0093524,9.5821578 l 0.028869,0.096229 0.1347209,-0.019246 -0.3945396,0.115475 H 5.6051899 c -0.028869,0.038492 -0.086606,0.019246 -0.115475,0.057737 -0.1539667,0.048115 -0.4426542,0.048115 -0.5485062,0.1347208 h 0.028869 c 0.086606,0.019246 0.23095,-0.06736 0.3175563,-0.048115 0.1443437,-0.048115 0.4330312,-0.057737 0.6254895,-0.096229 0.028869,-0.038492 0.1250979,-0.048115 0.1828354,-0.038492 -0.00962,-0.00962 -0.00962,-0.028869 -0.00962,-0.038492 h 0.038492 l 0.028869,0.048115 0.048115,-0.019246 c 0.096229,0.038492 0.115475,-0.019246 0.086606,-0.057737 l 0.1250979,-0.00962 c 0,0.00962 -0.00962,0.019246 0.019246,0.019246 0.028869,0.00962 0.06736,0 0.096229,-0.00962 0.086606,-0.00962 0.2020812,-0.019246 0.2790645,-0.057737 0.125098,0 0.3752938,-0.028869 0.4715229,-0.06736 0.028869,-0.019246 0.048115,-0.019246 0.086606,-0.019246 h 0.048115 v 0.057737 l -0.057737,0.057737 -0.00962,0.105852 -0.048115,0.086606 -0.019246,0.00962 c -0.00962,0.086606 -0.00962,0.1828354 -0.086606,0.2405724 l -0.057737,0.134721 0.00962,0.05774 c 0,0.01925 -0.00962,0.05774 -0.038492,0.05774 -0.019246,0.04811 -0.038492,0.115475 -0.076983,0.153966 0.00962,0.105853 -0.00962,0.250196 -0.019246,0.356048 l 0.019246,0.04811 c 0.06736,-0.125097 0.1058521,-0.259819 0.1732125,-0.384917 l 0.048115,0.04812 -0.048115,0.105852 v 0.06736 c 0,0.04811 0,0.105852 -0.038492,0.144344 -0.028869,0.144344 -0.1635896,0.471523 -0.1635896,0.558129 -0.057737,0.05774 -0.1058521,0.105852 -0.1058521,0.192459 l 0.038492,0.0096 C 7.01014,11.564463 7.0775007,11.400873 7.1833528,11.304644 v -0.0096 c 0.086606,-0.115475 0.086606,-0.240573 0.1347208,-0.365671 h 0.00962 c 0.057737,-0.115475 0.096229,-0.202081 0.1443438,-0.327179 0.1443437,-0.16359 0.1732125,-0.327179 0.2983104,-0.490769 l 0.00962,0.125098 0.028869,0.04811 -0.048115,0.02887 c -0.019246,0.06736 -0.057737,0.134721 -0.06736,0.211705 l -0.125098,0.153966 c -0.028869,0.221328 -0.076983,0.16359 -0.115475,0.567753 l -0.105852,0.05774 0.00962,0.07698 0.048115,0.04811 c 0.06736,-0.04811 0.086606,-0.144344 0.1443437,-0.182836 0.00962,-0.02887 0.038492,-0.09623 0.028869,-0.125098 l 0.086606,0.03849 c 0.048115,-0.0096 0.1058521,-0.0096 0.1539667,-0.0096 -0.019246,0.153967 -0.057737,0.307933 -0.115475,0.452277 v 0.0096 l -0.086606,0.05774 v 0.04811 l -0.076983,0.03849 h -0.00962 z m 2.184402,-2.4153523 0.057737,0.06736 c 0.1443438,-0.06736 0.7024739,-0.076983 0.8949319,-0.076983 l 0.01925,0.028869 c 0.07698,0.019246 0.153966,0.019246 0.221327,0.057737 h 0.182835 l 0.06736,0.048115 0.182835,-0.00962 c 0.192458,0.096229 0.423408,0.057737 0.596621,0.1828354 0.04811,0.086606 0.105852,0.1732125 0.115475,0.2694417 -0.04812,0.096229 -0.327179,0.3271792 -0.423409,0.3368022 l -0.05774,0.03849 -0.09623,0.0096 c -0.03849,0.01925 -0.06736,0.04811 -0.09623,0.07698 -0.105852,0.03849 -0.211705,0.153966 -0.317557,0.153966 -0.09623,0 -0.173212,0.07698 -0.269441,0.07698 l -0.07698,0.06736 -0.02887,0.0096 -0.05774,0.08661 c -0.03849,-0.0096 -0.07698,0.03849 -0.115475,0.02887 l -0.09623,0.03849 -0.01925,0.01925 c -0.06736,0 -0.4907691,0.125097 -0.5388836,0.153966 -0.06736,0 -0.1443438,0.0096 -0.2117042,0.02887 l -0.086606,0.06736 -0.00962,0.03849 c -0.096229,0.0096 -0.2117041,0 -0.2983104,0.05774 -0.019246,0 -0.086606,-0.01925 -0.1058521,-0.0096 l -0.115475,0.03849 -0.1154749,-0.0096 c -0.038492,0.06736 -0.125098,0.125098 -0.1828355,0.16359 l -0.115475,-0.03849 0.00962,-0.105852 c 0.1924583,-0.259819 0.3175562,-0.731341 0.4618999,-0.856439 v -0.07698 l 0.096229,-0.182835 0.028869,-0.0096 0.00962,-0.1058521 C 9.3677502,9.7746161 9.4639794,9.6110265 9.512094,9.4281911 l 0.076983,-0.06736 0.038492,-0.076983 c 0.00962,0 0.096229,-0.028869 0.096229,-0.038492 z M 10.387779,7.5036078 10.358911,7.484362 c 0.05774,-0.086606 0.07698,-0.1924583 0.125098,-0.2790646 0.07698,-0.038492 0.115475,-0.1058521 0.105852,-0.1924583 0.07698,-0.1539667 0.125097,-0.3079333 0.250195,-0.4234083 l 0.0096,-0.028869 0.06736,-0.076983 c 0.01925,-0.076983 0.04811,-0.1539667 0.105852,-0.2020812 l 0.03849,-0.096229 c 0.202082,-0.057737 0.481146,-0.048115 0.69285,-0.048115 l 0.01925,-0.048115 -0.04811,-0.086606 h 0.0096 c 0.03849,0 0.09623,0 0.09623,0.048115 l 0.07698,0.076983 v 0.00962 l 0.04811,-0.057737 c -0.01925,-0.048115 -0.02887,-0.096229 -0.03849,-0.1443437 l 0.09623,0.019246 v 0.00962 l 0.05774,0.096229 c -0.0096,0.028869 -0.01925,0.057737 -0.01925,0.076983 l 0.04811,0.086606 v 0.06736 c 0.05774,0.00962 0.105853,0.019246 0.16359,0.019246 0.04811,0.019246 0.09623,0.048115 0.153967,0.048115 0.01925,0.048115 0.03849,0.096229 0.03849,0.1443437 l -0.02887,0.076983 -0.08661,0.057737 v 0.00962 l -0.03849,0.06736 c -0.01925,0.00962 -0.08661,0.038492 -0.09623,0.057737 -0.134721,0.048115 -0.423409,0.23095 -0.500392,0.3368021 h -0.105852 l -0.07698,0.096229 c -0.09623,0.048115 -0.202081,0.048115 -0.307933,0.048115 -0.08661,0.048115 -0.163589,0.1058521 -0.259819,0.1250979 -0.03849,0.028869 -0.09623,0.06736 -0.144343,0.076983 l -0.06736,0.076983 -0.01925,0.00962 c -0.125097,0.00962 -0.259818,0 -0.356047,0.096229 l -0.01925,-0.115475 z m 3.214054,3.4834962 c -0.04811,-0.01925 -0.09623,-0.03849 -0.153966,-0.03849 l -0.02887,0.08661 -0.07698,0.04811 v 0.04811 l -0.08661,0.04812 h -0.04811 v 0.05774 l 0.05774,0.03849 0.07698,-0.01925 0.105852,-0.115475 0.07698,-0.02887 c 0.03849,-0.02887 0.07698,-0.07698 0.07698,-0.125097 z m -5.0905224,1.183618 0.1058521,0.0096 0.00962,0.01925 c -0.028869,0.02887 -0.06736,0.07698 -0.105852,0.09623 -0.096229,0.0096 -0.2213271,0.0096 -0.2983104,0.08661 -0.06736,0 -0.125098,0 -0.1924584,-0.0096 l 0.057737,-0.06736 c 0.1347209,-0.04811 0.3175563,-0.02887 0.4234083,-0.134721 z m 3.0119724,-1.905337 h 0.105853 l 0.04811,0.05774 c -0.05774,0.01925 -0.250196,0.08661 -0.279064,0.153967 l -0.08661,-0.0096 -0.01925,0.02887 -0.09623,0.0096 v -0.02887 l 0.115475,-0.08661 h 0.0096 c 0.08661,0 0.153967,-0.05774 0.202081,-0.125098 z m -5.5620452,2.559696 0.096229,0.0096 0.00962,0.02887 -0.086606,0.05774 c -0.057737,-0.0096 -0.105852,0.0096 -0.1635895,0.0096 l -0.1058521,0.05774 -0.1828354,-0.01925 0.057737,-0.06736 c 0.048115,-0.01925 0.096229,-0.01925 0.1539666,-0.01925 0.076983,0 0.1635896,0 0.2213271,-0.05774 z m 3.3968895,0 -0.096229,0.01924 -0.048115,0.05774 c -0.038492,-0.01925 -0.076983,-0.03849 -0.115475,-0.06736 l -0.00962,-0.08661 0.096229,-0.0096 0.076983,0.04811 0.076983,-0.08661 0.019246,0.03849 h 0.1058521 l 0.057737,-0.02887 z M 6.7984315,13.45057 h 0.115475 c 0.038492,0 0.06736,0.0096 0.1058521,0.0096 l -0.019246,0.03849 -0.057737,-0.0096 c -0.048115,0.01925 -0.1058521,0.02887 -0.1635896,0.03849 l -0.06736,0.03849 C 6.596351,13.54679 6.5771052,13.52755 6.4520072,13.57564 l 0.048115,-0.06736 c 0.028869,-0.01925 0.038492,0 0.06736,0 v -0.0096 l 0.057737,-0.01925 0.096229,0.0096 z m 7.0728435,-6.4762226 0.0096,0.06736 c 0,0.115475 -0.105852,0.1732125 -0.192458,0.240573 V 7.0994453 l 0.115475,-0.038492 z m -3.512364,0.1250979 0.08661,0.048115 -0.05774,0.086606 v 0.019246 c -0.02887,0.048115 -0.04811,0.115475 -0.07698,0.1635896 -0.02887,-0.019246 -0.04811,-0.048115 -0.04811,-0.076983 0,-0.086606 0.08661,-0.1539667 0.09623,-0.240573 z m 0.558129,3.4834957 0.07698,-0.02887 v 0.08661 c -0.05774,0.0096 -0.115475,0.02887 -0.16359,0.06736 -0.01924,-0.0096 -0.08661,-0.03849 -0.08661,-0.06736 v -0.01925 c 0.05774,-0.01925 0.115475,-0.03849 0.173213,-0.03849 z m -6.5435834,3.291037 c -0.048115,0.01925 -0.1058521,0.03849 -0.1539667,0.01925 -0.038492,0.0096 -0.076983,0.02887 -0.115475,0.01925 l -0.057737,0.05774 0.086606,-0.02887 0.1539667,0.01925 c 0.048115,-0.02887 0.2117041,-0.06736 0.2598187,-0.03849 l 0.019246,-0.01925 c -0.06736,0 -0.1347208,-0.0096 -0.1924583,-0.02887 z m 7.6887104,-2.299877 c 0.01925,0 0.07698,0 0.07698,0.01925 l -0.0096,0.01925 c -0.03849,0.02887 -0.173212,0.06736 -0.240573,0.06736 0,0 -0.01925,0 -0.01925,-0.0096 0,-0.03849 0.153967,-0.09623 0.192459,-0.09623 z m 0.99116,-0.08661 -0.09623,-0.0096 -0.05774,0.06736 -0.01925,0.06736 c 0.06736,-0.0096 0.163589,-0.04811 0.173212,-0.125098 z m 0.85644,-1.5589122 0.06736,0.028869 -0.06736,0.096229 -0.09623,-0.03849 z m -10.3735041,3.2333002 -0.048115,-0.01925 0.019246,-0.01925 c 0.06736,-0.02887 0.1443438,-0.02887 0.2213271,-0.02887 l 0.038492,0.04812 -0.1539667,-0.01925 z M 6.5001211,9.3319619 c 0.028869,-0.00962 0.076983,-0.00962 0.086606,-0.028869 0,0 0,-0.00962 -0.00962,-0.00962 0.00962,-0.028869 -0.019246,-0.048115 -0.048115,-0.048115 -0.00962,0 -0.115475,0.038492 -0.115475,0.048115 z m 5.0231619,2.6944171 c 0.02887,-0.0096 0.07698,-0.02887 0.105853,-0.01925 l -0.03849,0.07698 -0.125098,0.0096 z m -2.704039,0.817947 0.028869,0.01925 c -0.06736,0.03849 -0.1347208,0.07698 -0.2117041,0.09623 l -0.038492,-0.04811 c 0.076983,0 0.1635896,-0.01925 0.2213271,-0.06736 z m 0.1443437,-0.731341 c 0.06736,0 0.115475,0.0096 0.1443438,0.07698 h -0.125098 z m 4.0897393,-0.62549 0.08661,-0.04811 0.02887,-0.08661 -0.09623,0.04811 h -0.01925 z M 6.6059732,9.6591411 c -0.019246,0 -0.028869,0.019246 -0.048115,0.00962 v -0.00962 c 0.019246,-0.019246 0.076983,-0.06736 0.115475,-0.048115 L 6.808054,9.6014061 C 6.731071,9.6398981 6.721448,9.6206521 6.6733332,9.6591431 Z M 8.1937544,9.4763057 c -0.00962,0.028869 -0.028869,0.057737 -0.048115,0.086606 h -0.028869 l -0.038492,-0.076983 0.00962,-0.00962 z m -1.8283541,3.3199063 0.096229,0.0096 0.028869,0.03849 -0.019246,0.01925 h -0.096229 z m 4.8499497,-9.4015895 0.05774,-0.06736 v 0.086606 l -0.01925,0.028869 c -0.03849,0 -0.04812,0.028869 -0.03849,0.057737 -0.0096,0 -0.03849,0 -0.03849,-0.00962 0,-0.038492 0.05774,-0.057737 0.03849,-0.096229 z M 10.724581,6.560562 c 0.0096,-0.057737 0.02887,-0.1250979 0.08661,-0.1539666 l -0.01925,0.105852 z m -6.9188765,6.553206 -0.00962,-0.05774 c 0.057737,0.01924 0.1250979,0.04811 0.1828354,0.04811 -0.048115,0.0096 -0.096229,0.0096 -0.1443437,0.0096 l -0.028869,0.03849 -0.019246,-0.0096 z m 8.7376085,-1.751371 h 0.08661 l -0.04811,0.05774 h -0.06736 z M 12.110281,5.8195975 h 0.09623 l 0.02887,0.057737 -0.09623,-0.019246 z M 8.819244,6.5701849 8.790375,6.4739559 8.761506,6.4354639 8.751886,6.5316929 Z m 1.905337,-0.00962 -0.02887,0.076983 -0.05774,0.038492 c 0.0096,-0.038492 0.02887,-0.115475 0.07698,-0.115475 z m 3.483496,0.086606 0.07698,0.028869 -0.07698,0.038492 h -0.04811 z M 6.1055816,13.479439 h 0.048115 l -0.105852,0.05774 -0.038492,-0.03849 c 0.028869,-0.0096 0.06736,-0.01925 0.096229,-0.01925 z m 1.7802395,-0.510015 -0.038492,0.03849 c -0.028869,0.0096 -0.06736,0.02887 -0.096229,0.02887 h -0.038492 c 0.048115,-0.02887 0.115475,-0.05774 0.173213,-0.06736 z M 11.244219,2.884608 c 0,0 0,-0.028869 0.0096,-0.028869 0.0096,0 0.01925,0.038492 0.01925,0.048115 0,0.019246 -0.0096,0.038492 -0.02887,0.038492 l -0.04811,0.019246 c 0.0096,-0.00962 0.01925,-0.048115 0.01925,-0.057737 z m 0.182835,1.0585208 c -0.0096,0.00962 -0.01925,0.019246 -0.01925,0.028869 0,0.019246 0.04812,0.019246 0.05774,0.019246 0.0096,0 0.03849,0 0.03849,-0.019246 0,-0.028869 -0.04811,-0.028869 -0.06736,-0.028869 z m -3.5123642,6.8611392 0.048115,0.01925 -0.00962,0.08661 -0.038492,-0.02887 z m 3.5604792,-7.698333 -0.0096,0.048115 0.04812,0.028869 c 0,-0.019246 0.01924,-0.038492 0.01924,-0.06736 0,-0.00962 -0.04811,-0.00962 -0.05774,-0.00962 z m -4.4265416,6.0528144 -0.028869,-0.00962 0.076983,-0.048114 c 0.028869,0 0.076983,-0.00962 0.125098,-0.019246 -0.076983,0.028869 -0.1539667,0.06736 -0.1732125,0.076983 z m 0.4618999,3.8876586 0.096229,-0.01925 0.057737,0.03849 H 7.5586419 Z m 2.9446127,-6.2164043 0.03849,0.019246 v 0.076983 l -0.03849,-0.00962 z m 0.712096,-3.3006603 v 0.019246 c 0,0.057737 -0.04812,0.1058521 -0.08661,0.1443437 l 0.02887,-0.038492 c 0.0096,-0.048115 0.02887,-0.096229 0.05774,-0.1250977 z m -5.8603565,9.9982096 0.019246,-0.03849 h 0.038492 l -0.00962,0.04811 -0.1250979,0.01925 z m 5.7448815,-3.011972 0.07698,-0.0096 v 0.07698 z m -6.6879273,2.646302 0.048115,-0.07698 c 0.028869,0 0.06736,-0.0096 0.105852,-0.0096 -0.057737,0.01925 -0.1154749,0.04811 -0.1539666,0.08661 z m 0.2598187,-0.0096 0.1058521,-0.0096 0.00962,0.01925 -0.048115,0.01924 z m 0.6062438,-0.153967 -0.038492,0.02887 -0.096229,0.0096 -0.028869,-0.0096 z m 1.9053374,0.39454 0.048115,-0.08661 h 0.00962 c 0,0 0.00962,0 -0.028869,0.05774 l -0.028869,0.05774 h -0.019246 l -0.00962,-0.03849 z m 5.4080794,-7.4866293 0.06736,0.076983 v 0.048115 c -0.01925,-0.038492 -0.05774,-0.076983 -0.06736,-0.125098 z m -5.4850627,6.7167953 0.06736,0.03849 -0.019246,0.0096 h -0.048115 z m 0.5196375,-0.173212 0.06736,0.0096 c -0.048115,0.0096 -0.086606,0.01925 -0.1347209,0.01925 z m 4.3206892,-2.088173 -0.06736,0.07698 h -0.05774 c 0.03849,-0.0096 0.08661,-0.03849 0.125098,-0.07698 z M 6.8946607,9.6014036 6.8657919,9.5917807 c -0.019246,0 -0.028869,0 -0.019246,-0.00962 0,-0.00962 0,-0.019246 0.019246,-0.019246 0.028869,0.00962 0.038492,0.028869 0.028869,0.038492 z m -0.5100146,3.8299204 -0.028869,0.05774 -0.019246,-0.04812 z m 4.3976729,-9.2379994 0.06736,0.00962 c 0,0.00962 -0.03849,0.00962 -0.03849,0.00962 -0.0096,0.048115 -0.02887,0 -0.02887,-0.019246 z m -2.6944167,6.3318794 0.038492,-0.01925 -0.038492,0.07698 z M 6.9620211,9.5725349 c -0.00962,0 -0.028869,-0.019246 -0.028869,-0.028869 l 0.019246,-0.00962 c 0.00962,0.00962 0.028869,0.00962 0.028869,0.028869 z M 10.888171,3.5582121 c 0,-0.00962 0.0096,-0.00962 0.0096,-0.00962 0.01925,0 0.02887,0.019246 0.02887,0.028869 -0.0096,0 -0.01925,0.00962 -0.01925,0.00962 -0.0096,0 -0.01925,-0.019246 -0.01925,-0.028869 z m 0.173212,-0.06736 c 0.0096,0 0.01925,-0.00962 0.02887,-0.00962 0.0096,0 0.0096,0 0.0096,0.00962 0.0096,0.00962 -0.0096,0.019246 -0.01925,0.019246 -0.0096,0 -0.01925,-0.00962 -0.01925,-0.019246 z M 6.2114336,13.45057 h 0.019246 l 0.00962,0.0096 -0.048115,0.01925 -0.00962,-0.0096 z m 1.15475,-0.134721 -0.019246,0.04811 h -0.00962 l 0.00962,-0.04811 z m 3.8010524,-10.315766 0.02887,0.00962 v 0.00962 c 0,0.00962 0,0.019246 -0.0096,0.019246 -0.0096,0 -0.01924,-0.028869 -0.01924,-0.038492 z m 0.144343,1.1258812 c 0.0096,0 0.02887,0 0.02887,0.019246 v 0.00962 h -0.0096 c -0.0096,0 -0.01925,0 -0.01925,-0.019246 z M 10.926663,3.7602934 h 0.0096 c 0.01924,0 0.02887,0.00962 0.02887,0.028869 -0.01925,0 -0.02887,-0.019246 -0.03849,-0.028869 z m -5.8988481,9.4497036 0.038492,0.02887 H 5.0278149 Z M 11.099875,3.4331142 c 0.0096,-0.00962 0.01925,-0.00962 0.02887,-0.00962 0.0096,0 0.0096,0 0.01925,0.00962 -0.0096,0 -0.02887,0.00962 -0.03849,0.00962 z m 0.04811,-0.3752937 h 0.0096 c 0.0096,0 0.0096,0 0.0096,0.00962 l 0.0096,0.00962 c 0,0.00962 -0.0096,0.00962 -0.0096,0.00962 -0.01925,0 -0.01925,-0.019246 -0.01925,-0.028869 z m -0.09623,0.5100145 v -0.00962 h 0.0096 c 0.0096,0 0.01925,0 0.01925,0.00962 v 0.00962 h -0.01925 c -0.0096,0 -0.0096,0 -0.0096,-0.00962 z m -0.05774,0.076983 0.02887,0.00962 c 0,0 0,0.019246 -0.0096,0.019246 -0.0096,0 -0.01925,-0.019246 -0.01925,-0.028869 z m -0.02887,0.06736 h 0.02887 c 0,0.00962 0,0.019246 -0.01925,0.019246 z m -3.7336822,9.594048 h 0.048114 l -0.00962,0.0096 z m 3.1274482,-5.821864 -0.0096,0.038492 V 7.4939849 Z M 7.7703461,8.6583578 h 0.00962 c -0.00962,0.00962 -0.019246,0.00962 -0.019246,0.00962 z M 10.75345,4.3184225 c 0.0096,0 0,0.00962 0.0096,0.019246 z"
       id="path8047" />
  </g>
</svg>
