<?xml version="1.0" encoding="UTF-8" standalone="no"?>
<!-- Created with Inkscape (http://www.inkscape.org/) -->

<svg
   width="512"
   height="512"
   viewBox="0 0 135.46666 135.46666"
   version="1.1"
   id="svg5"
   inkscape:version="1.1 (c68e22c387, 2021-05-23)"
   sodipodi:docname="logo_maskable.svg"
   inkscape:label="bg"
   inkscape:export-filename="C:\repos\biker\src\assets\logo192.png"
   inkscape:export-xdpi="96"
   inkscape:export-ydpi="96"
   xmlns:inkscape="http://www.inkscape.org/namespaces/inkscape"
   xmlns:sodipodi="http://sodipodi.sourceforge.net/DTD/sodipodi-0.dtd"
   xmlns="http://www.w3.org/2000/svg"
   xmlns:svg="http://www.w3.org/2000/svg">
  <sodipodi:namedview
     id="namedview7"
     pagecolor="#ffffff"
     bordercolor="#666666"
     borderopacity="1.0"
     inkscape:pageshadow="2"
     inkscape:pageopacity="0.0"
     inkscape:pagecheckerboard="0"
     inkscape:document-units="px"
     showgrid="false"
     inkscape:snap-grids="true"
     showborder="true"
     showguides="true"
     inkscape:zoom="1.28"
     inkscape:cx="148.82812"
     inkscape:cy="228.51562"
     inkscape:window-width="2498"
     inkscape:window-height="1057"
     inkscape:window-x="54"
     inkscape:window-y="760"
     inkscape:window-maximized="1"
     inkscape:current-layer="svg5"
     units="px"
     borderlayer="false"
     inkscape:snap-center="false"
     inkscape:guide-bbox="true"
     inkscape:snap-object-midpoints="true">
    <sodipodi:guide
       position="783.43378,444.26667"
       orientation="0,1"
       id="guide57249"
       inkscape:label=""
       inkscape:locked="false"
       inkscape:color="rgb(0,0,255)" />
    <sodipodi:guide
       position="67.73333,193.34426"
       orientation="-1,0"
       id="guide57253"
       inkscape:label=""
       inkscape:locked="false"
       inkscape:color="rgb(0,0,255)" />
    <sodipodi:guide
       position="-114.30826,67.73333"
       orientation="0,1"
       id="guide10962"
       inkscape:label=""
       inkscape:locked="false"
       inkscape:color="rgb(0,0,255)" />
  </sodipodi:namedview>
  <defs
     id="defs2">
    <rect
       x="40.625"
       y="276.5625"
       width="428.125"
       height="200"
       id="rect60091" />
    <inkscape:path-effect
       effect="skeletal"
       id="path-effect57346"
       is_visible="true"
       lpeversion="1"
       pattern="m 125.89317,-15.987843 c -0.30257,0.42563 -0.89355,0.5255 -1.31918,0.22294 -0.42562,-0.30255 -0.52549,-0.89354 -0.22294,-1.31917 0.30257,-0.42562 0.89355,-0.52549 1.31918,-0.22293 0.42562,0.30256 0.52549,0.89355 0.22294,1.31916 z"
       copytype="single_stretched"
       prop_scale="1"
       scale_y_rel="false"
       spacing="0"
       normal_offset="0"
       tang_offset="0"
       prop_units="false"
       vertical_pattern="false"
       hide_knot="false"
       fuse_tolerance="0" />
    <inkscape:path-effect
       effect="skeletal"
       id="path-effect57340"
       is_visible="true"
       lpeversion="1"
       pattern="m 235.04646,-100.39937 c 0.50441,-0.13516 1.02348,0.16452 1.15863,0.668934 0.13516,0.504408 -0.16452,1.023476 -0.66894,1.158633 -0.5044,0.135157 -1.02347,-0.164529 -1.15863,-0.668937 -0.13515,-0.50441 0.16453,-1.02348 0.66894,-1.15863 z"
       copytype="single_stretched"
       prop_scale="1"
       scale_y_rel="false"
       spacing="0"
       normal_offset="0"
       tang_offset="0"
       prop_units="false"
       vertical_pattern="false"
       hide_knot="false"
       fuse_tolerance="0" />
    <inkscape:path-effect
       effect="skeletal"
       id="path-effect57334"
       is_visible="true"
       lpeversion="1"
       pattern="m 175.14685,-108.24903 c 0,-0.5222 0.42382,-0.94602 0.94602,-0.94602 0.5222,0 0.94602,0.42382 0.94602,0.94602 0,0.5222 -0.42382,0.94602 -0.94602,0.94602 -0.5222,0 -0.94602,-0.42382 -0.94602,-0.94602 z"
       copytype="single_stretched"
       prop_scale="1"
       scale_y_rel="false"
       spacing="0"
       normal_offset="0"
       tang_offset="0"
       prop_units="false"
       vertical_pattern="false"
       hide_knot="false"
       fuse_tolerance="0" />
    <inkscape:path-effect
       effect="skeletal"
       id="path-effect57328"
       is_visible="true"
       lpeversion="1"
       pattern="m 105.20062,-108.06546 c 0,-0.52221 0.42382,-0.94603 0.94602,-0.94603 0.52221,0 0.94603,0.42382 0.94603,0.94603 0,0.5222 -0.42382,0.94601 -0.94603,0.94601 -0.5222,0 -0.94602,-0.42381 -0.94602,-0.94601 z"
       copytype="single_stretched"
       prop_scale="1"
       scale_y_rel="false"
       spacing="0"
       normal_offset="0"
       tang_offset="0"
       prop_units="false"
       vertical_pattern="false"
       hide_knot="false"
       fuse_tolerance="0" />
    <inkscape:path-effect
       effect="skeletal"
       id="path-effect57322"
       is_visible="true"
       lpeversion="1"
       pattern="m 105.20062,-108.06546 c 0,-0.52221 0.42382,-0.94603 0.94602,-0.94603 0.52221,0 0.94603,0.42382 0.94603,0.94603 0,0.5222 -0.42382,0.94601 -0.94603,0.94601 -0.5222,0 -0.94602,-0.42381 -0.94602,-0.94601 z"
       copytype="single_stretched"
       prop_scale="1"
       scale_y_rel="false"
       spacing="0"
       normal_offset="0"
       tang_offset="0"
       prop_units="false"
       vertical_pattern="false"
       hide_knot="false"
       fuse_tolerance="0" />
    <inkscape:path-effect
       effect="skeletal"
       id="path-effect57316"
       is_visible="true"
       lpeversion="1"
       pattern="m 105.20062,-108.06546 c 0,-0.52221 0.42382,-0.94603 0.94602,-0.94603 0.52221,0 0.94603,0.42382 0.94603,0.94603 0,0.5222 -0.42382,0.94601 -0.94603,0.94601 -0.5222,0 -0.94602,-0.42381 -0.94602,-0.94601 z"
       copytype="single_stretched"
       prop_scale="1"
       scale_y_rel="false"
       spacing="0"
       normal_offset="0"
       tang_offset="0"
       prop_units="false"
       vertical_pattern="false"
       hide_knot="false"
       fuse_tolerance="0" />
    <inkscape:path-effect
       effect="skeletal"
       id="path-effect57310"
       is_visible="true"
       lpeversion="1"
       pattern="m 105.20062,-108.06546 c 0,-0.52221 0.42382,-0.94603 0.94602,-0.94603 0.52221,0 0.94603,0.42382 0.94603,0.94603 0,0.5222 -0.42382,0.94601 -0.94603,0.94601 -0.5222,0 -0.94602,-0.42381 -0.94602,-0.94601 z"
       copytype="single_stretched"
       prop_scale="1"
       scale_y_rel="false"
       spacing="0"
       normal_offset="0"
       tang_offset="0"
       prop_units="false"
       vertical_pattern="false"
       hide_knot="false"
       fuse_tolerance="0" />
    <inkscape:path-effect
       effect="skeletal"
       id="path-effect57304"
       is_visible="true"
       lpeversion="1"
       pattern="m 105.20062,-108.06546 c 0,-0.52221 0.42382,-0.94603 0.94602,-0.94603 0.52221,0 0.94603,0.42382 0.94603,0.94603 0,0.5222 -0.42382,0.94601 -0.94603,0.94601 -0.5222,0 -0.94602,-0.42381 -0.94602,-0.94601 z"
       copytype="single_stretched"
       prop_scale="1"
       scale_y_rel="false"
       spacing="0"
       normal_offset="0"
       tang_offset="0"
       prop_units="false"
       vertical_pattern="false"
       hide_knot="false"
       fuse_tolerance="0" />
    <inkscape:path-effect
       effect="skeletal"
       id="path-effect57298"
       is_visible="true"
       lpeversion="1"
       pattern="m 105.20062,-108.06546 c 0,-0.52221 0.42382,-0.94603 0.94602,-0.94603 0.52221,0 0.94603,0.42382 0.94603,0.94603 0,0.5222 -0.42382,0.94601 -0.94603,0.94601 -0.5222,0 -0.94602,-0.42381 -0.94602,-0.94601 z"
       copytype="single_stretched"
       prop_scale="1"
       scale_y_rel="false"
       spacing="0"
       normal_offset="0"
       tang_offset="0"
       prop_units="false"
       vertical_pattern="false"
       hide_knot="false"
       fuse_tolerance="0" />
    <inkscape:path-effect
       effect="skeletal"
       id="path-effect57292"
       is_visible="true"
       lpeversion="1"
       pattern="m 105.20062,-108.06546 c 0,-0.52221 0.42382,-0.94603 0.94602,-0.94603 0.52221,0 0.94603,0.42382 0.94603,0.94603 0,0.5222 -0.42382,0.94601 -0.94603,0.94601 -0.5222,0 -0.94602,-0.42381 -0.94602,-0.94601 z"
       copytype="single_stretched"
       prop_scale="1"
       scale_y_rel="false"
       spacing="0"
       normal_offset="0"
       tang_offset="0"
       prop_units="false"
       vertical_pattern="false"
       hide_knot="false"
       fuse_tolerance="0" />
    <inkscape:path-effect
       effect="skeletal"
       id="path-effect57284"
       is_visible="true"
       lpeversion="1"
       pattern="m 105.20062,-108.06546 c 0,-0.52221 0.42382,-0.94603 0.94602,-0.94603 0.52221,0 0.94603,0.42382 0.94603,0.94603 0,0.5222 -0.42382,0.94601 -0.94603,0.94601 -0.5222,0 -0.94602,-0.42381 -0.94602,-0.94601 z"
       copytype="single_stretched"
       prop_scale="1"
       scale_y_rel="false"
       spacing="0"
       normal_offset="0"
       tang_offset="0"
       prop_units="false"
       vertical_pattern="false"
       hide_knot="false"
       fuse_tolerance="0" />
    <inkscape:path-effect
       effect="skeletal"
       id="path-effect57278"
       is_visible="true"
       lpeversion="1"
       pattern="m 105.20062,-108.06546 c 0,-0.52221 0.42382,-0.94603 0.94602,-0.94603 0.52221,0 0.94603,0.42382 0.94603,0.94603 0,0.5222 -0.42382,0.94601 -0.94603,0.94601 -0.5222,0 -0.94602,-0.42381 -0.94602,-0.94601 z"
       copytype="single_stretched"
       prop_scale="1"
       scale_y_rel="false"
       spacing="0"
       normal_offset="0"
       tang_offset="0"
       prop_units="false"
       vertical_pattern="false"
       hide_knot="false"
       fuse_tolerance="0" />
    <inkscape:path-effect
       effect="skeletal"
       id="path-effect57272"
       is_visible="true"
       lpeversion="1"
       pattern="m 105.10035,-108.46658 c 0,-0.5222 0.42381,-0.94602 0.94602,-0.94602 0.5222,0 0.94602,0.42382 0.94602,0.94602 0,0.52221 -0.42382,0.94602 -0.94602,0.94602 -0.52221,0 -0.94602,-0.42381 -0.94602,-0.94602 z"
       copytype="single_stretched"
       prop_scale="1"
       scale_y_rel="false"
       spacing="0"
       normal_offset="0"
       tang_offset="0"
       prop_units="false"
       vertical_pattern="false"
       hide_knot="false"
       fuse_tolerance="0" />
    <inkscape:path-effect
       effect="skeletal"
       id="path-effect57266"
       is_visible="true"
       lpeversion="1"
       pattern="m 105.20062,-108.06546 c 0,-0.52221 0.42382,-0.94603 0.94602,-0.94603 0.52221,0 0.94603,0.42382 0.94603,0.94603 0,0.5222 -0.42382,0.94601 -0.94603,0.94601 -0.5222,0 -0.94602,-0.42381 -0.94602,-0.94601 z"
       copytype="single_stretched"
       prop_scale="1"
       scale_y_rel="false"
       spacing="0"
       normal_offset="0"
       tang_offset="0"
       prop_units="false"
       vertical_pattern="false"
       hide_knot="false"
       fuse_tolerance="0" />
    <inkscape:path-effect
       effect="skeletal"
       id="path-effect57260"
       is_visible="true"
       lpeversion="1"
       pattern="m 105.20062,-108.06546 c 0,-0.52221 0.42382,-0.94603 0.94602,-0.94603 0.52221,0 0.94603,0.42382 0.94603,0.94603 0,0.5222 -0.42382,0.94601 -0.94603,0.94601 -0.5222,0 -0.94602,-0.42381 -0.94602,-0.94601 z"
       copytype="single_stretched"
       prop_scale="1"
       scale_y_rel="false"
       spacing="0"
       normal_offset="0"
       tang_offset="0"
       prop_units="false"
       vertical_pattern="false"
       hide_knot="false"
       fuse_tolerance="0" />
    <rect
       x="2687.5"
       y="281.25"
       width="556.25"
       height="206.25"
       id="rect33206" />
    <rect
       x="3431.25"
       y="237.5"
       width="400"
       height="75"
       id="rect32190" />
    <rect
       x="2906.25"
       y="237.5"
       width="4187.5"
       height="1581.25"
       id="rect22074" />
    <rect
       x="2568.75"
       y="150"
       width="1843.75"
       height="1456.25"
       id="rect14372" />
    <rect
       x="2568.75"
       y="150"
       width="2568.75"
       height="1200"
       id="rect12606" />
    <rect
       x="2562.5"
       y="87.5"
       width="3712.5"
       height="1168.75"
       id="rect5934" />
    <rect
       x="2801.9106"
       y="53.033009"
       width="4490.1279"
       height="1325.8252"
       id="rect2948" />
    <inkscape:path-effect
       effect="skeletal"
       id="path-effect24832"
       is_visible="true"
       lpeversion="1"
       pattern="m -172.86403,-8.0557069 c -0.30257,0.4353157 -0.89355,0.5374584 -1.31918,0.2280133 -0.42562,-0.3094349 -0.52549,-0.9138736 -0.22294,-1.3491893 0.30257,-0.4353055 0.89355,-0.5374482 1.31918,-0.2280031 0.42562,0.3094451 0.52549,0.9138838 0.22294,1.3491791 z"
       copytype="single_stretched"
       prop_scale="1"
       scale_y_rel="false"
       spacing="0"
       normal_offset="0"
       tang_offset="0"
       prop_units="false"
       vertical_pattern="false"
       hide_knot="false"
       fuse_tolerance="0" />
    <inkscape:path-effect
       effect="skeletal"
       id="path-effect24746"
       is_visible="true"
       lpeversion="1"
       pattern="m -63.710739,-94.388122 c 0.50441,-0.138233 1.02348,0.16827 1.15863,0.684159 0.13516,0.515887 -0.16452,1.046767 -0.66894,1.184999 -0.5044,0.138233 -1.02347,-0.168273 -1.15863,-0.684159 -0.13515,-0.515889 0.16453,-1.04677 0.66894,-1.184999 z"
       copytype="single_stretched"
       prop_scale="1"
       scale_y_rel="false"
       spacing="0"
       normal_offset="0"
       tang_offset="0"
       prop_units="false"
       vertical_pattern="false"
       hide_knot="false"
       fuse_tolerance="0" />
    <inkscape:path-effect
       effect="skeletal"
       id="path-effect24734"
       is_visible="true"
       lpeversion="1"
       pattern="m -123.61035,-102.41641 c 0,-0.53408 0.42382,-0.96755 0.94602,-0.96755 0.5222,0 0.94602,0.43347 0.94602,0.96755 0,0.53409 -0.42382,0.96755 -0.94602,0.96755 -0.5222,0 -0.94602,-0.43346 -0.94602,-0.96755 z"
       copytype="single_stretched"
       prop_scale="1"
       scale_y_rel="false"
       spacing="0"
       normal_offset="0"
       tang_offset="0"
       prop_units="false"
       vertical_pattern="false"
       hide_knot="false"
       fuse_tolerance="0" />
    <inkscape:path-effect
       effect="skeletal"
       id="path-effect24215"
       is_visible="true"
       lpeversion="1"
       pattern="m -193.55658,-102.22866 c 0,-0.53409 0.42382,-0.96755 0.94602,-0.96755 0.52221,0 0.94603,0.43346 0.94603,0.96755 0,0.53408 -0.42382,0.96754 -0.94603,0.96754 -0.5222,0 -0.94602,-0.43346 -0.94602,-0.96754 z"
       copytype="single_stretched"
       prop_scale="1"
       scale_y_rel="false"
       spacing="0"
       normal_offset="0"
       tang_offset="0"
       prop_units="false"
       vertical_pattern="false"
       hide_knot="false"
       fuse_tolerance="0" />
    <inkscape:path-effect
       effect="skeletal"
       id="path-effect24323"
       is_visible="true"
       lpeversion="1"
       pattern="M 0,4.9921385 C 0,2.2364781 2.2364781,0 4.9921385,0 7.747799,0 9.984277,2.2364781 9.984277,4.9921385 9.984277,7.747799 7.747799,9.984277 4.9921385,9.984277 2.2364781,9.984277 0,7.747799 0,4.9921385 Z"
       copytype="single_stretched"
       prop_scale="1"
       scale_y_rel="false"
       spacing="0"
       normal_offset="0"
       tang_offset="0"
       prop_units="false"
       vertical_pattern="false"
       hide_knot="false"
       fuse_tolerance="0" />
    <inkscape:path-effect
       effect="skeletal"
       id="path-effect23772"
       is_visible="true"
       lpeversion="1"
       pattern="M 0,4.9921385 C 0,2.2364781 2.2364781,0 4.9921385,0 7.747799,0 9.984277,2.2364781 9.984277,4.9921385 9.984277,7.747799 7.747799,9.984277 4.9921385,9.984277 2.2364781,9.984277 0,7.747799 0,4.9921385 Z"
       copytype="single_stretched"
       prop_scale="1"
       scale_y_rel="false"
       spacing="0"
       normal_offset="0"
       tang_offset="0"
       prop_units="false"
       vertical_pattern="false"
       hide_knot="false"
       fuse_tolerance="0" />
    <inkscape:path-effect
       effect="skeletal"
       id="path-effect22092"
       is_visible="true"
       lpeversion="1"
       pattern="M 0,4.9921385 C 0,2.2364781 2.2364781,0 4.9921385,0 7.747799,0 9.984277,2.2364781 9.984277,4.9921385 9.984277,7.747799 7.747799,9.984277 4.9921385,9.984277 2.2364781,9.984277 0,7.747799 0,4.9921385 Z"
       copytype="single_stretched"
       prop_scale="1"
       scale_y_rel="false"
       spacing="0"
       normal_offset="0"
       tang_offset="0"
       prop_units="false"
       vertical_pattern="false"
       hide_knot="false"
       fuse_tolerance="0" />
    <inkscape:path-effect
       effect="skeletal"
       id="path-effect20654"
       is_visible="true"
       lpeversion="1"
       pattern="m -0.87697814,-0.85438243 c 0,-2.75566037 2.23647814,-4.99213847 4.99213854,-4.99213847 2.7556605,0 4.9921385,2.2364781 4.9921385,4.99213847 0,2.75566053 -2.236478,4.99213853 -4.9921385,4.99213853 -2.7556604,0 -4.99213854,-2.236478 -4.99213854,-4.99213853 z"
       copytype="single_stretched"
       prop_scale="1"
       scale_y_rel="false"
       spacing="0"
       normal_offset="0"
       tang_offset="0"
       prop_units="false"
       vertical_pattern="false"
       hide_knot="false"
       fuse_tolerance="0" />
    <inkscape:path-effect
       effect="skeletal"
       id="path-effect20195"
       is_visible="true"
       lpeversion="1"
       pattern="M 0,4.9921385 C 0,2.2364781 2.2364781,0 4.9921385,0 7.747799,0 9.984277,2.2364781 9.984277,4.9921385 9.984277,7.747799 7.747799,9.984277 4.9921385,9.984277 2.2364781,9.984277 0,7.747799 0,4.9921385 Z"
       copytype="single_stretched"
       prop_scale="1"
       scale_y_rel="false"
       spacing="0"
       normal_offset="0"
       tang_offset="0"
       prop_units="false"
       vertical_pattern="false"
       hide_knot="false"
       fuse_tolerance="0" />
    <inkscape:path-effect
       effect="skeletal"
       id="path-effect19577"
       is_visible="true"
       lpeversion="1"
       pattern="m -128.77235,183.99968 c -2.09366,-1.79172 -2.3387,-4.94507 -0.54698,-7.03873 1.79172,-2.09366 4.94507,-2.3387 7.03872,-0.54698 2.09366,1.79172 2.33871,4.94508 0.54699,7.03873 -1.79173,2.09365 -4.94507,2.3387 -7.03873,0.54698 z"
       copytype="single_stretched"
       prop_scale="1"
       scale_y_rel="false"
       spacing="0"
       normal_offset="0"
       tang_offset="0"
       prop_units="false"
       vertical_pattern="false"
       hide_knot="false"
       fuse_tolerance="0" />
    <inkscape:path-effect
       effect="skeletal"
       id="path-effect19476"
       is_visible="true"
       lpeversion="1"
       pattern="m 384.55031,158.50292 c 2.66176,0.71322 4.24319,3.45233 3.52997,6.11409 -0.71321,2.66177 -3.45233,4.2432 -6.11409,3.52998 -2.66177,-0.71322 -4.24319,-3.45233 -3.52998,-6.1141 0.71322,-2.66176 3.45234,-4.24319 6.1141,-3.52997 z"
       copytype="single_stretched"
       prop_scale="1"
       scale_y_rel="false"
       spacing="0"
       normal_offset="0"
       tang_offset="0"
       prop_units="false"
       vertical_pattern="false"
       hide_knot="false"
       fuse_tolerance="0" />
    <inkscape:path-effect
       effect="skeletal"
       id="path-effect17842"
       is_visible="true"
       lpeversion="1"
       pattern="M 0,4.9921385 C 0,2.2364781 2.2364781,0 4.9921385,0 7.747799,0 9.984277,2.2364781 9.984277,4.9921385 9.984277,7.747799 7.747799,9.984277 4.9921385,9.984277 2.2364781,9.984277 0,7.747799 0,4.9921385 Z"
       copytype="single_stretched"
       prop_scale="1"
       scale_y_rel="false"
       spacing="0"
       normal_offset="0"
       tang_offset="0"
       prop_units="false"
       vertical_pattern="false"
       hide_knot="false"
       fuse_tolerance="0" />
    <inkscape:path-effect
       effect="skeletal"
       id="path-effect15718"
       is_visible="true"
       lpeversion="1"
       pattern="m -193.55658,-102.22866 c 0,-0.53409 0.42382,-0.96755 0.94602,-0.96755 0.52221,0 0.94603,0.43346 0.94603,0.96755 0,0.53408 -0.42382,0.96754 -0.94603,0.96754 -0.5222,0 -0.94602,-0.43346 -0.94602,-0.96754 z"
       copytype="single_stretched"
       prop_scale="1"
       scale_y_rel="false"
       spacing="0"
       normal_offset="0"
       tang_offset="0"
       prop_units="false"
       vertical_pattern="false"
       hide_knot="false"
       fuse_tolerance="0" />
    <inkscape:path-effect
       effect="skeletal"
       id="path-effect11430"
       is_visible="true"
       lpeversion="1"
       pattern="m 333.00028,431.92954 c -2.59911,0.91561 -5.45162,-0.45071 -6.36721,-3.04981 -0.91563,-2.5991 0.45068,-5.45162 3.04978,-6.36723 2.59909,-0.91563 5.45162,0.4507 6.36724,3.0498 0.91561,2.59909 -0.45071,5.45162 -3.04981,6.36724 z"
       copytype="single_stretched"
       prop_scale="1"
       scale_y_rel="false"
       spacing="0"
       normal_offset="0"
       tang_offset="0"
       prop_units="false"
       vertical_pattern="false"
       hide_knot="false"
       fuse_tolerance="0" />
    <inkscape:path-effect
       effect="skeletal"
       id="path-effect10009"
       is_visible="true"
       lpeversion="1"
       pattern="M 0,4.9921385 C 0,2.2364781 2.2364781,0 4.9921385,0 7.747799,0 9.984277,2.2364781 9.984277,4.9921385 9.984277,7.747799 7.747799,9.984277 4.9921385,9.984277 2.2364781,9.984277 0,7.747799 0,4.9921385 Z"
       copytype="single_stretched"
       prop_scale="1"
       scale_y_rel="false"
       spacing="0"
       normal_offset="0"
       tang_offset="0"
       prop_units="false"
       vertical_pattern="false"
       hide_knot="false"
       fuse_tolerance="0" />
    <inkscape:path-effect
       effect="skeletal"
       id="path-effect9777"
       is_visible="true"
       lpeversion="1"
       pattern="M 0,4.9921385 C 0,2.2364781 2.2364781,0 4.9921385,0 7.747799,0 9.984277,2.2364781 9.984277,4.9921385 9.984277,7.747799 7.747799,9.984277 4.9921385,9.984277 2.2364781,9.984277 0,7.747799 0,4.9921385 Z"
       copytype="single_stretched"
       prop_scale="1"
       scale_y_rel="false"
       spacing="0"
       normal_offset="0"
       tang_offset="0"
       prop_units="false"
       vertical_pattern="false"
       hide_knot="false"
       fuse_tolerance="0" />
    <inkscape:path-effect
       effect="skeletal"
       id="path-effect9408"
       is_visible="true"
       lpeversion="1"
       pattern="M 0,4.9921385 C 0,2.2364781 2.2364781,0 4.9921385,0 7.747799,0 9.984277,2.2364781 9.984277,4.9921385 9.984277,7.747799 7.747799,9.984277 4.9921385,9.984277 2.2364781,9.984277 0,7.747799 0,4.9921385 Z"
       copytype="single_stretched"
       prop_scale="1"
       scale_y_rel="false"
       spacing="0"
       normal_offset="0"
       tang_offset="0"
       prop_units="false"
       vertical_pattern="false"
       hide_knot="false"
       fuse_tolerance="0" />
    <inkscape:path-effect
       effect="skeletal"
       id="path-effect8668"
       is_visible="true"
       lpeversion="1"
       pattern="m -193.55658,-102.22866 c 0,-0.53409 0.42382,-0.96755 0.94602,-0.96755 0.52221,0 0.94603,0.43346 0.94603,0.96755 0,0.53408 -0.42382,0.96754 -0.94603,0.96754 -0.5222,0 -0.94602,-0.43346 -0.94602,-0.96754 z"
       copytype="single_stretched"
       prop_scale="1"
       scale_y_rel="false"
       spacing="0"
       normal_offset="0"
       tang_offset="0"
       prop_units="false"
       vertical_pattern="false"
       hide_knot="false"
       fuse_tolerance="0" />
    <inkscape:path-effect
       effect="skeletal"
       id="path-effect8574"
       is_visible="true"
       lpeversion="1"
       pattern="m -193.55658,-102.22866 c 0,-0.53409 0.42382,-0.96755 0.94602,-0.96755 0.52221,0 0.94603,0.43346 0.94603,0.96755 0,0.53408 -0.42382,0.96754 -0.94603,0.96754 -0.5222,0 -0.94602,-0.43346 -0.94602,-0.96754 z"
       copytype="single_stretched"
       prop_scale="1"
       scale_y_rel="false"
       spacing="0"
       normal_offset="0"
       tang_offset="0"
       prop_units="false"
       vertical_pattern="false"
       hide_knot="false"
       fuse_tolerance="0" />
    <inkscape:path-effect
       effect="skeletal"
       id="path-effect8537"
       is_visible="true"
       lpeversion="1"
       pattern="m -193.55658,-102.22866 c 0,-0.53409 0.42382,-0.96755 0.94602,-0.96755 0.52221,0 0.94603,0.43346 0.94603,0.96755 0,0.53408 -0.42382,0.96754 -0.94603,0.96754 -0.5222,0 -0.94602,-0.43346 -0.94602,-0.96754 z"
       copytype="single_stretched"
       prop_scale="1"
       scale_y_rel="false"
       spacing="0"
       normal_offset="0"
       tang_offset="0"
       prop_units="false"
       vertical_pattern="false"
       hide_knot="false"
       fuse_tolerance="0" />
    <inkscape:path-effect
       effect="skeletal"
       id="path-effect8533"
       is_visible="true"
       lpeversion="1"
       pattern="m -193.55658,-102.22866 c 0,-0.53409 0.42382,-0.96755 0.94602,-0.96755 0.52221,0 0.94603,0.43346 0.94603,0.96755 0,0.53408 -0.42382,0.96754 -0.94603,0.96754 -0.5222,0 -0.94602,-0.43346 -0.94602,-0.96754 z"
       copytype="single_stretched"
       prop_scale="1"
       scale_y_rel="false"
       spacing="0"
       normal_offset="0"
       tang_offset="0"
       prop_units="false"
       vertical_pattern="false"
       hide_knot="false"
       fuse_tolerance="0" />
    <inkscape:path-effect
       effect="skeletal"
       id="path-effect8363"
       is_visible="true"
       lpeversion="1"
       pattern="m -193.55658,-102.22866 c 0,-0.53409 0.42382,-0.96755 0.94602,-0.96755 0.52221,0 0.94603,0.43346 0.94603,0.96755 0,0.53408 -0.42382,0.96754 -0.94603,0.96754 -0.5222,0 -0.94602,-0.43346 -0.94602,-0.96754 z"
       copytype="single_stretched"
       prop_scale="1"
       scale_y_rel="false"
       spacing="0"
       normal_offset="0"
       tang_offset="0"
       prop_units="false"
       vertical_pattern="false"
       hide_knot="false"
       fuse_tolerance="0" />
    <inkscape:path-effect
       effect="skeletal"
       id="path-effect8359"
       is_visible="true"
       lpeversion="1"
       pattern="m 117.42956,54.466932 c 0,-1.87187 1.5192,-3.391069 3.39107,-3.391069 1.87187,0 3.39107,1.519199 3.39107,3.391069 0,1.87187 -1.5192,3.391069 -3.39107,3.391069 -1.87187,0 -3.39107,-1.519199 -3.39107,-3.391069 z"
       copytype="single_stretched"
       prop_scale="1"
       scale_y_rel="false"
       spacing="0"
       normal_offset="0"
       tang_offset="0"
       prop_units="false"
       vertical_pattern="false"
       hide_knot="false"
       fuse_tolerance="0" />
    <inkscape:path-effect
       effect="skeletal"
       id="path-effect8303"
       is_visible="true"
       lpeversion="1"
       pattern="m -193.55658,-102.22866 c 0,-0.53409 0.42382,-0.96755 0.94602,-0.96755 0.52221,0 0.94603,0.43346 0.94603,0.96755 0,0.53408 -0.42382,0.96754 -0.94603,0.96754 -0.5222,0 -0.94602,-0.43346 -0.94602,-0.96754 z"
       copytype="single_stretched"
       prop_scale="1"
       scale_y_rel="false"
       spacing="0"
       normal_offset="0"
       tang_offset="0"
       prop_units="false"
       vertical_pattern="false"
       hide_knot="false"
       fuse_tolerance="0" />
    <inkscape:path-effect
       effect="skeletal"
       id="path-effect8157"
       is_visible="true"
       lpeversion="1"
       pattern="m -193.55658,-102.22866 c 0,-0.53409 0.42382,-0.96755 0.94602,-0.96755 0.52221,0 0.94603,0.43346 0.94603,0.96755 0,0.53408 -0.42382,0.96754 -0.94603,0.96754 -0.5222,0 -0.94602,-0.43346 -0.94602,-0.96754 z"
       copytype="single_stretched"
       prop_scale="1"
       scale_y_rel="false"
       spacing="0"
       normal_offset="0"
       tang_offset="0"
       prop_units="false"
       vertical_pattern="false"
       hide_knot="false"
       fuse_tolerance="0" />
    <inkscape:path-effect
       effect="skeletal"
       id="path-effect7950"
       is_visible="true"
       lpeversion="1"
       pattern="m -193.65685,-102.6389 c 0,-0.53409 0.42381,-0.96756 0.94602,-0.96756 0.5222,0 0.94602,0.43347 0.94602,0.96756 0,0.53408 -0.42382,0.96754 -0.94602,0.96754 -0.52221,0 -0.94602,-0.43346 -0.94602,-0.96754 z"
       copytype="single_stretched"
       prop_scale="1"
       scale_y_rel="false"
       spacing="0"
       normal_offset="0"
       tang_offset="0"
       prop_units="false"
       vertical_pattern="false"
       hide_knot="false"
       fuse_tolerance="0" />
    <inkscape:path-effect
       effect="skeletal"
       id="path-effect7818"
       is_visible="true"
       lpeversion="1"
       pattern="m -193.55658,-102.22866 c 0,-0.53409 0.42382,-0.96755 0.94602,-0.96755 0.52221,0 0.94603,0.43346 0.94603,0.96755 0,0.53408 -0.42382,0.96754 -0.94603,0.96754 -0.5222,0 -0.94602,-0.43346 -0.94602,-0.96754 z"
       copytype="single_stretched"
       prop_scale="1"
       scale_y_rel="false"
       spacing="0"
       normal_offset="0"
       tang_offset="0"
       prop_units="false"
       vertical_pattern="false"
       hide_knot="false"
       fuse_tolerance="0" />
    <inkscape:path-effect
       effect="skeletal"
       id="path-effect7553"
       is_visible="true"
       lpeversion="1"
       pattern="M 0,4.9921385 C 0,2.2364781 2.2364781,0 4.9921385,0 7.747799,0 9.984277,2.2364781 9.984277,4.9921385 9.984277,7.747799 7.747799,9.984277 4.9921385,9.984277 2.2364781,9.984277 0,7.747799 0,4.9921385 Z"
       copytype="single_stretched"
       prop_scale="1"
       scale_y_rel="false"
       spacing="0"
       normal_offset="0"
       tang_offset="0"
       prop_units="false"
       vertical_pattern="false"
       hide_knot="false"
       fuse_tolerance="0" />
    <inkscape:path-effect
       effect="skeletal"
       id="path-effect7421"
       is_visible="true"
       lpeversion="1"
       pattern="m -193.55658,-102.22866 c 0,-0.53409 0.42382,-0.96755 0.94602,-0.96755 0.52221,0 0.94603,0.43346 0.94603,0.96755 0,0.53408 -0.42382,0.96754 -0.94603,0.96754 -0.5222,0 -0.94602,-0.43346 -0.94602,-0.96754 z"
       copytype="single_stretched"
       prop_scale="1"
       scale_y_rel="false"
       spacing="0"
       normal_offset="0"
       tang_offset="0"
       prop_units="false"
       vertical_pattern="false"
       hide_knot="false"
       fuse_tolerance="0" />
    <inkscape:path-effect
       effect="skeletal"
       id="path-effect7251"
       is_visible="true"
       lpeversion="1"
       pattern="M 0,4.9921385 C 0,2.2364781 2.2364781,0 4.9921385,0 7.747799,0 9.984277,2.2364781 9.984277,4.9921385 9.984277,7.747799 7.747799,9.984277 4.9921385,9.984277 2.2364781,9.984277 0,7.747799 0,4.9921385 Z"
       copytype="single_stretched"
       prop_scale="1"
       scale_y_rel="false"
       spacing="0"
       normal_offset="0"
       tang_offset="0"
       prop_units="false"
       vertical_pattern="false"
       hide_knot="false"
       fuse_tolerance="0" />
    <inkscape:path-effect
       effect="skeletal"
       id="path-effect6595"
       is_visible="true"
       lpeversion="1"
       pattern="M 0,4.9921385 C 0,2.2364781 2.2364781,0 4.9921385,0 7.747799,0 9.984277,2.2364781 9.984277,4.9921385 9.984277,7.747799 7.747799,9.984277 4.9921385,9.984277 2.2364781,9.984277 0,7.747799 0,4.9921385 Z"
       copytype="single_stretched"
       prop_scale="1"
       scale_y_rel="false"
       spacing="0"
       normal_offset="0"
       tang_offset="0"
       prop_units="false"
       vertical_pattern="false"
       hide_knot="false"
       fuse_tolerance="0" />
    <inkscape:path-effect
       effect="skeletal"
       id="path-effect5703"
       is_visible="true"
       lpeversion="1"
       pattern="M 0,4.9921385 C 0,2.2364781 2.2364781,0 4.9921385,0 7.747799,0 9.984277,2.2364781 9.984277,4.9921385 9.984277,7.747799 7.747799,9.984277 4.9921385,9.984277 2.2364781,9.984277 0,7.747799 0,4.9921385 Z"
       copytype="single_stretched"
       prop_scale="1"
       scale_y_rel="false"
       spacing="0"
       normal_offset="0"
       tang_offset="0"
       prop_units="false"
       vertical_pattern="false"
       hide_knot="false"
       fuse_tolerance="0" />
    <inkscape:path-effect
       effect="skeletal"
       id="path-effect3671"
       is_visible="true"
       lpeversion="1"
       pattern="M 0,4.9921385 C 0,2.2364781 2.2364781,0 4.9921385,0 7.747799,0 9.984277,2.2364781 9.984277,4.9921385 9.984277,7.747799 7.747799,9.984277 4.9921385,9.984277 2.2364781,9.984277 0,7.747799 0,4.9921385 Z"
       copytype="single_stretched"
       prop_scale="1"
       scale_y_rel="false"
       spacing="0"
       normal_offset="0"
       tang_offset="0"
       prop_units="false"
       vertical_pattern="false"
       hide_knot="false"
       fuse_tolerance="0" />
    <inkscape:path-effect
       effect="skeletal"
       id="path-effect3525"
       is_visible="true"
       lpeversion="1"
       pattern="M 0,4.9921385 C 0,2.2364781 2.2364781,0 4.9921385,0 7.747799,0 9.984277,2.2364781 9.984277,4.9921385 9.984277,7.747799 7.747799,9.984277 4.9921385,9.984277 2.2364781,9.984277 0,7.747799 0,4.9921385 Z"
       copytype="single_stretched"
       prop_scale="1"
       scale_y_rel="false"
       spacing="0"
       normal_offset="0"
       tang_offset="0"
       prop_units="false"
       vertical_pattern="false"
       hide_knot="false"
       fuse_tolerance="0" />
    <inkscape:path-effect
       effect="skeletal"
       id="path-effect3521"
       is_visible="true"
       lpeversion="1"
       pattern="M 0,4.9921385 C 0,2.2364781 2.2364781,0 4.9921385,0 7.747799,0 9.984277,2.2364781 9.984277,4.9921385 9.984277,7.747799 7.747799,9.984277 4.9921385,9.984277 2.2364781,9.984277 0,7.747799 0,4.9921385 Z"
       copytype="single_stretched"
       prop_scale="1"
       scale_y_rel="false"
       spacing="0"
       normal_offset="0"
       tang_offset="0"
       prop_units="false"
       vertical_pattern="false"
       hide_knot="false"
       fuse_tolerance="0" />
    <inkscape:path-effect
       effect="skeletal"
       id="path-effect1831"
       is_visible="true"
       lpeversion="1"
       pattern="M 0,4.9921385 C 0,2.2364781 2.2364781,0 4.9921385,0 7.747799,0 9.984277,2.2364781 9.984277,4.9921385 9.984277,7.747799 7.747799,9.984277 4.9921385,9.984277 2.2364781,9.984277 0,7.747799 0,4.9921385 Z"
       copytype="single_stretched"
       prop_scale="1"
       scale_y_rel="false"
       spacing="0"
       normal_offset="0"
       tang_offset="0"
       prop_units="false"
       vertical_pattern="false"
       hide_knot="false"
       fuse_tolerance="0" />
    <inkscape:path-effect
       effect="skeletal"
       id="path-effect44"
       is_visible="true"
       lpeversion="1"
       pattern="M 0,4.9921382 C 0,2.2364779 2.2364779,0 4.9921382,0 c 2.7556604,0 4.9921383,2.2364779 4.9921383,4.9921382 0,2.7556604 -2.2364779,4.9921383 -4.9921383,4.9921383 C 2.2364779,9.9842765 0,7.7477986 0,4.9921382 Z"
       copytype="single_stretched"
       prop_scale="1"
       scale_y_rel="false"
       spacing="0"
       normal_offset="0"
       tang_offset="0"
       prop_units="false"
       vertical_pattern="false"
       hide_knot="false"
       fuse_tolerance="0" />
  </defs>
  <rect
     style="opacity:1;fill:#001529;fill-opacity:1;stroke-width:20;stroke-linecap:round;stroke-linejoin:round"
     id="rect10986"
     width="135.46666"
     height="135.46666"
     x="-5.5511151e-17"
     y="-2.7755576e-17"
     ry="0" />
  <g
     aria-label="B"
     transform="matrix(0.98881232,5.2037031e-4,-5.3220996e-4,1.011314,0,0)"
     id="text64301"
     style="font-size:70.3375px;line-height:1.25;font-family:'Road Rage';-inkscape-font-specification:'Road Rage';opacity:1;fill:#ff8a6e;stroke-width:0.527532">
    <path
       d="m 59.096772,85.762778 -0.586146,0.293073 c -0.644761,0 -2.579042,0.117229 -2.93073,0.820604 -0.527531,0 -0.996447,0.175844 -1.523979,0.05861 l -0.175843,0.175844 c -0.410303,-0.05861 -0.879219,0 -1.230907,0.175844 l -0.64476,-0.05861 -0.175844,0.175844 c -0.703375,0 -0.996448,0.410302 -1.582594,0.820604 l -0.64476,-0.293073 c -0.76199,0.351688 -1.40675,0.879219 -2.16874,1.230907 l 0.117229,-0.175844 -0.527531,0.05861 c -0.175844,0.11723 -0.410302,0.351688 -0.64476,0.410303 H 45.1465 v 0.05861 l -0.468916,0.410302 v 0.05862 c -0.410302,0.117229 -0.937834,0.175844 -1.289521,0.410302 l -0.468917,-0.05862 -0.117229,0.234459 -0.527531,-0.117229 -0.117229,0.175843 -0.586146,0.05862 -0.117229,0.175844 h -0.820605 c -0.586145,0.410302 -0.937833,0.64476 -1.641208,0.64476 -0.468917,0.175844 -0.937833,0.468917 -1.40675,0.64476 -0.234458,0 -0.586146,-0.117229 -0.820604,-0.05861 l -0.820604,0.175844 c -0.234459,0.293073 -0.527532,0.527531 -0.820605,0.761989 l -0.761989,0.175844 -0.410302,0.410302 -0.703375,-0.05862 -0.527532,0.234459 c -0.234458,0 -0.468916,-0.05861 -0.703375,-0.05861 -0.351687,0.234459 -0.937833,0.410302 -1.348135,0.351688 l -0.527531,0.293073 -0.586146,-0.117229 -0.05861,0.234458 0.527532,0.351687 0.468916,-0.234458 0.996448,0.117229 0.937834,-0.468916 0.05861,0.293072 c 0.351688,0.11723 0.644761,0.234459 0.996448,0.234459 l 0.527531,-0.351688 c 0.11723,0.117229 0.351688,0.351688 0.11723,0.468917 l 0.117229,0.293073 c 0.293073,0.05861 1.172291,0.05861 1.40675,0.293073 0.703375,-0.586146 1.817052,-0.468917 2.696271,-0.351688 l 0.468916,-0.175843 0.76199,0.05861 c 0.351687,-0.117229 0.761989,-0.234458 1.172292,-0.234458 l 0.586145,0.05861 v 0.234459 l -0.117229,0.293073 -0.64476,-0.293073 -0.117229,0.293073 -0.175844,0.117229 -0.351688,0.05861 c -0.175843,-0.05861 -0.410302,-0.05861 -0.586145,-0.05861 -0.293073,0.175844 -0.586146,0.351687 -0.937834,0.468916 h -0.351687 l -0.293073,0.293073 -0.468917,-0.05861 c -0.879219,0 -1.699823,0.351687 -2.520427,0.293073 l -0.175844,0.175843 c -0.937833,-0.175843 -2.754885,0.820605 -3.575489,0.175844 l -0.293073,0.468917 h -0.351688 l -0.527531,0.293073 c -0.410302,-0.117229 -0.820604,-0.05862 -1.230906,-0.05862 -0.410303,0 -1.055063,-0.175844 -1.40675,0.05862 -0.410303,0.05861 -0.879219,0.05861 -1.289521,0 l -0.410302,0.175844 -0.175844,0.234458 0.761989,0.234458 0.468917,-0.234458 0.644761,0.234458 h -0.76199 l -0.527531,0.293073 -0.703375,-0.234458 c -0.351688,0.175844 -0.703375,0.351687 -1.113677,0.410302 -0.293073,-0.117229 -0.586146,-0.175844 -0.879219,-0.234458 l -0.644761,0.234458 -0.410302,-0.175844 c -0.410302,0.05862 -0.879218,0.05862 -1.230906,0.293073 l -0.586146,-0.05861 c -0.175844,0 -0.410302,0.05861 -0.586146,0.117229 0.586146,0.175843 1.289521,0.234458 1.934282,0.234458 0.234458,0 0.527531,-0.05862 0.703375,-0.175844 l 0.527531,0.117229 0.05861,-0.175843 c 0.468917,0.117229 1.055063,0.05861 1.52398,0.117229 l 0.410302,-0.175844 0.351687,0.351688 c 1.230907,0 2.520427,-0.05862 3.751334,-0.05862 0.410302,0 1.055062,0.234458 1.523979,0.293073 l 0.351687,-0.527531 c 0.527532,0.117229 2.579042,0.234458 2.8135,0.410302 l 0.644761,0.05861 c 0.64476,0 1.230906,-0.117229 1.817052,-0.175843 l 0.351687,-0.175844 c 0.879219,0.234458 1.934282,-0.117229 2.813501,0 0.175843,0.05861 0.468916,0.175844 0.64476,0.117229 l 0.410302,-0.293073 c 0.117229,0.05861 0.527531,0.351688 0.644761,0.351688 l 0.117229,-0.11723 0.468916,0.05862 0.410302,-0.586146 h 0.11723 c 0.293073,0.05862 0.586145,0.175844 0.879218,0.117229 l -0.175843,0.293073 h -0.586146 l -0.117229,0.293073 0.05861,0.293073 0.820604,0.117229 0.586146,-0.234458 0.644761,0.05861 v -0.468917 l 0.468916,-0.175844 -0.117229,-0.468917 0.410302,-0.175843 c 0.05861,0.351687 0.117229,0.703375 0.234459,0.996448 l 0.761989,0.351687 0.468917,-0.468917 -0.351688,-0.293072 c 0.234459,-0.05862 0.468917,-0.234459 0.644761,-0.410303 l -0.117229,-0.468916 0.586145,0.117229 -0.05861,0.234458 c 0.468917,0 0.937833,0 1.40675,0.05861 l 0.586146,-0.175844 c 0.761989,0.175844 1.523979,-0.117229 2.227354,0.117229 0.410302,-0.293073 1.113677,-0.293073 1.582594,-0.527531 h 0.05861 l 0.293073,-0.234458 c 0.527532,0.05861 1.699823,0.05861 2.16874,-0.175844 l 0.05861,-0.175844 c 0.293073,0 0.703376,0 0.996448,0.05862 l 0.586146,-0.234459 c 0.175844,0.05862 0.410302,-0.05861 0.586146,-0.117229 l 0.410302,0.05861 0.586146,-0.234459 h 0.76199 v -0.527531 l 0.410302,-0.234458 -0.117229,-0.468917 0.468916,-0.293073 c 0.117229,0.351688 0.293073,0.703375 0.293073,1.113677 0.293073,0 0.586146,0.11723 0.879219,0.234459 l 0.468917,-0.410302 -0.410302,-0.351688 c 0.293072,-0.117229 0.586145,-0.293073 0.761989,-0.527531 l -0.117229,-0.410302 0.586146,0.05861 v 0.293073 c 0.820604,-0.234458 1.934281,-0.175843 2.8135,-0.175843 0.64476,0 1.289521,-0.175844 1.934281,-0.175844 l 0.234459,-0.234459 c 0.527531,-0.117229 1.40675,-0.351687 1.758437,-0.761989 l 0.410302,0.05861 c 0.351688,0 1.934281,-0.175843 1.992896,-0.586145 0.351688,-0.05862 0.76199,-0.05862 1.113677,0 l 1.230906,-0.468917 0.11723,-1.230906 c -0.351688,0 -0.703375,0.117229 -1.055063,0.234458 v 0.175844 l -0.410302,0.527531 -0.234458,-0.234458 c -0.351688,0 -0.76199,-0.175844 -1.055063,-0.410302 v -0.293073 c 0.410302,-0.05862 0.937833,-0.234459 1.348136,-0.175844 L 73.047032,91.1553 h 0.293073 l 0.234458,-0.234459 0.351687,0.05862 c 0.586146,0 1.230907,-0.175844 1.758438,-0.410302 0.293073,0.05861 1.172292,-0.175844 1.289521,-0.468917 0.468917,-0.175844 0.996448,-0.05862 1.40675,-0.351688 0.175844,0.05862 0.468917,0.175844 0.64476,0.11723 l 0.175844,-0.234459 h 0.586146 c 0.351687,-0.293073 0.76199,-0.937833 1.289521,-0.996448 v 0.351688 l 0.234458,0.468917 -0.234458,0.351687 -0.586146,0.05861 -0.234458,-0.234459 -0.05862,-0.234458 -0.175844,0.586146 -0.175843,0.117229 -0.586146,0.117229 -0.234459,0.234459 c -0.703375,0.234458 -1.465364,0.234458 -2.110125,0.586145 H 76.739746 L 76.505287,90.803612 76.036371,91.1553 c -0.293073,0.05861 -0.644761,0.175843 -0.937834,0.117229 l -0.410302,0.234458 c 0.117229,0.351688 0.117229,1.172292 0.468917,1.348135 l 0.468916,-0.234458 c 0.11723,-0.293073 0.293073,-0.64476 0.527532,-0.879219 l 1.055062,0.644761 0.527531,-0.351688 h 0.05862 l 0.527531,-0.410302 0.586146,-0.05861 0.117229,-0.293073 c 0.468917,-0.234459 1.113677,-0.117229 1.40675,-0.586146 l 0.879219,-0.175844 0.527531,-0.410302 h 0.05862 l 0.586146,-0.234458 c -0.293073,-0.175844 -0.586146,-0.410302 -0.76199,-0.644761 v -0.820604 c 0.117229,-0.117229 0.351688,-0.351687 0.586146,-0.351687 0.05861,0 0.117229,0 0.175844,0.05861 l -0.468917,0.410302 v 0.05862 l 0.05862,0.64476 h 0.293073 l 0.293073,-0.586146 v 0.234459 c 0.234458,0.351687 0.527531,0.703375 0.937833,0.703375 0.175844,0 0.820604,-0.234459 0.996448,-0.351688 0.293073,-0.351687 0.64476,-0.586146 1.113677,-0.527531 0.293073,-0.234458 0.64476,-0.410302 0.996448,-0.527531 l 0.351687,0.05861 0.586146,-0.293073 0.175844,-0.293073 0.468917,0.05861 0.586146,-0.293073 h 0.175843 l 0.234459,-0.468917 c -0.644761,-0.234458 -1.40675,-0.234458 -2.051511,-0.293072 l -1.230906,0.410302 v 0.05861 h -0.351688 c 0.175844,-0.117229 0.410302,-0.410302 0.644761,-0.468916 l 0.351687,-0.468917 c 0.351688,-0.117229 1.172292,-0.468917 1.40675,-0.76199 l -0.05861,0.468917 c 0.293073,0.117229 0.64476,0.234458 0.996448,0.234458 0.527531,0 1.055062,-0.351687 1.641208,-0.351687 -0.117229,0.293073 -0.410302,0.527531 -0.64476,0.703375 0.293073,-0.05862 0.996448,-0.234459 0.996448,-0.586146 0,-0.175844 -0.05862,-0.293073 -0.175844,-0.410302 L 90.221119,85.352448 89.810817,85.00076 c 0.996448,-0.64476 1.582594,-0.879219 2.461812,-1.758437 v -0.05862 l 0.468917,-0.468917 v -0.05861 c 0.527531,-0.410302 1.172292,-0.703375 1.523979,-1.289521 0.175844,-0.410302 0,-0.76199 0.05861,-1.172292 0.351687,0 0.64476,-0.117229 0.879219,-0.410302 h 0.410302 l 0.117229,-0.527531 0.468917,-0.468917 -0.05862,-0.351687 0.468917,0.351687 -0.351688,0.527531 -0.05861,0.293073 -0.293073,0.468917 -0.527532,0.351688 v 0.175843 l 0.527532,-0.05861 c 0.175843,-0.293073 0.527531,-0.644761 0.879218,-0.76199 l 0.05862,-0.937833 0.293073,-0.234459 c 0.175844,-0.410302 0.527531,-0.820604 0.879219,-1.172291 l -0.468917,-0.410302 0.586146,-0.586146 0.293073,0.703375 c -0.234458,0.761989 -0.351688,1.582594 -0.703375,2.344583 h -0.05862 l -0.64476,0.293073 -0.234459,0.644761 0.175844,0.586145 0.586146,-0.293073 h 0.175844 c 0.234458,-0.351687 0.351687,-0.820604 0.527531,-1.230906 0.820604,-0.410302 0.586146,-1.641208 1.465365,-1.992896 0.05861,-0.293073 0.293074,-1.172291 0.644764,-1.289521 l 0.17584,-3.634104 -0.23446,-0.468916 c 0.0586,-0.351688 -0.410301,-1.758438 -0.52753,-2.051511 L 99.306374,69.643742 V 69.526513 C 98.427155,68.47145 97.782394,68.881752 96.903176,67.299159 L 96.258418,67.12334 C 95.26197,66.126892 94.324137,66.478579 93.85522,65.951048 93.503533,65.775204 92.917387,65.71659 92.741543,65.306288 91.80371,65.189059 91.100335,65.130444 90.221116,64.778756 l -0.234458,-0.527531 h 0.703375 l 0.410302,-0.468916 0.586146,-0.05861 V 63.54785 c 0.527531,-0.175844 0.937833,-0.527531 1.40675,-0.761989 l 0.234458,-0.76199 -0.234458,-0.468917 h -0.586146 c -0.293073,0.117229 -0.586146,0.410302 -0.76199,0.703375 v 0.05861 l -0.293073,-0.05861 c -0.175843,0 -0.351687,0.05861 -0.351687,0.234459 -0.410302,0.293073 -0.820604,0.586145 -1.113677,0.996448 l -0.293073,-0.410303 c -0.117229,0.11723 -0.351688,0.234459 -0.527532,0.234459 -0.05861,0 -0.117229,0 -0.175843,-0.05862 0.234458,-0.64476 1.113677,-0.468916 1.40675,-1.055062 0.527531,-0.05861 0.996448,-0.410302 1.523979,-0.351688 l 0.175844,-0.410302 0.410302,-0.05861 c 0.527531,-0.703375 0.820604,-1.230907 1.699823,-1.348136 v -0.05861 l 0.586146,-0.234459 h 0.175843 l -0.351687,0.644761 -0.586146,0.117229 c -0.175844,0.175844 -0.293073,0.410302 -0.410302,0.64476 l 0.234458,0.293073 -0.05861,0.410302 c 0.234458,0.05861 0.527531,0.117229 0.703375,0.234459 0.527531,-0.527532 0.586146,-0.76199 0.703375,-1.52398 0.293073,-0.05861 0.586146,-0.175843 0.879218,-0.117229 l 0.351688,-0.527531 c 0.468917,-0.293073 0.76199,-0.64476 1.113677,-1.113677 l 0.527531,-0.293073 0.05862,-0.117229 0.586146,-0.410302 0.351687,-0.703375 c 1.992893,-1.172292 1.289523,-2.051511 2.110123,-3.634105 v -0.05861 c 0,-0.234459 0,-0.586146 0.29308,-0.644761 l 0.17584,-0.410302 c 0,-0.703375 -0.29307,-1.055062 -0.58615,-1.641208 v -0.117229 l -0.23445,-0.410302 -0.41031,-0.234459 -0.0586,-0.527531 -0.29307,-0.527531 h -0.0586 c -0.586145,-1.055063 -1.523979,-0.76199 -1.758437,-1.582594 -0.351687,-0.351688 -0.703375,-0.586146 -1.172292,-0.76199 -0.117229,-0.351687 -0.293073,-0.761989 -0.586145,-1.055062 -0.410303,-0.117229 -0.76199,-0.293073 -1.113678,-0.527531 -0.234458,0 -0.468916,-0.05861 -0.64476,-0.05861 l -0.05861,-0.175844 c -1.055106,-0.586158 -2.227398,-1.172303 -3.341075,-1.64122 l -0.527531,0.234458 c -1.113677,-0.175844 -1.758438,-0.879219 -2.696271,-1.113677 l -0.293073,-0.351687 c -0.351687,-0.05862 -0.703375,-0.05862 -1.055062,-0.05862 L 86.235324,41.68461 85.649178,41.977683 85.41472,41.68461 c -0.175844,0 -0.410302,-0.05861 -0.586146,-0.05861 0.05862,-0.05862 0.05862,-0.05862 0.05862,-0.11723 0,-0.117229 0,-0.175843 -0.117229,-0.175843 0,-0.11723 0.117229,-0.527532 -0.05862,-0.527532 -0.175844,0 -0.468917,0.410302 -0.586146,0.527532 l -0.05861,0.175843 c -0.351688,0 -0.76199,-0.05861 -1.113677,-0.117229 0.175843,-0.175844 0.234458,-0.351687 0.351687,-0.586146 0,-0.175843 0.05861,-0.351687 0.234458,-0.410302 0.468917,-0.468916 0.703375,-1.172291 0.996448,-1.758437 0.117229,-0.05861 0.527532,-0.234459 0.527532,-0.468917 0,-0.05862 -0.234459,-0.05862 -0.293073,-0.05862 h -0.11723 c -0.234458,0.234459 -0.410302,0.527532 -0.586145,0.820605 -0.351688,0.117229 -0.05862,0.820604 -0.527532,0.879218 -0.410302,0.410303 -0.761989,0.996448 -1.113677,1.582594 -0.234458,-0.05861 -0.468916,-0.05861 -0.703375,-0.05861 0,-0.11723 0.117229,-0.175844 0.234459,-0.175844 0.175843,-0.410302 0.586145,-0.76199 0.586145,-1.230906 0,-0.05861 -0.05861,-0.11723 -0.117229,-0.11723 L 82.073693,39.515873 82.42538,39.164186 82.484,38.871113 c 0.05861,-0.05862 0.175844,-0.234458 0.175844,-0.351687 0,-0.05862 -0.05862,-0.05862 -0.11723,-0.05862 -0.234458,0 -0.468916,0.117229 -0.64476,0.175844 0,0.293073 -0.05862,0.64476 -0.175844,0.879218 v 0.11723 c 0,0.175843 -0.410302,0.117229 -0.410302,0.527531 0,0 0,0.117229 -0.05861,0.117229 -0.05862,0 -0.175844,-0.351687 -0.175844,-0.410302 L 80.842782,39.750329 80.54971,39.281412 c 0.117229,-0.351687 0.410302,-0.64476 0.64476,-0.879219 v -0.117229 c 0,-0.117229 0,-0.293073 0.117229,-0.351687 l 0.175844,-0.586146 0.293073,-0.234458 c 0,-0.351688 0.293073,-0.410303 0.293073,-0.937834 0,-0.234458 0.234458,-0.351687 0.234458,-0.586146 0.234458,-0.175843 0.410302,-0.527531 0.468917,-0.820604 l -0.234459,-0.351687 -0.703375,0.586145 c 0.468917,-1.230906 0.820605,-2.461812 1.641209,-3.516875 l -0.351688,-0.351687 -0.293073,0.351687 c 0.586146,-0.820604 1.055063,-1.992895 1.582594,-2.930729 l 0.410302,-0.293073 0.05862,-0.468916 h -0.05862 c -0.351687,0 -0.761989,0.879218 -0.879219,1.172291 l -0.527531,0.468917 c -0.175844,0.527531 -0.64476,0.879219 -0.937833,1.289521 0.05861,0 0.175844,0.05861 0.175844,0.175844 0,0.05861 -0.05862,0.05861 -0.11723,0.05861 l -0.234458,-0.175844 v 0.175844 c -0.05862,0 -0.234458,0 -0.234458,0.117229 0,0.117229 0.175843,0.234459 0.293073,0.293073 -0.293073,0.351688 -0.76199,0.468917 -1.055063,0.820604 -0.117229,0.527532 -0.820604,1.230907 -1.172292,1.699823 -0.175843,0 -0.175843,0.175844 -0.117229,0.293073 h -0.05861 c -0.234459,0 -0.527532,0.468917 -0.586146,0.703375 -0.527531,0.234459 -0.351688,1.113677 -0.996448,1.230907 v 0.175843 c 0,0.175844 -0.117229,0.175844 -0.293073,0.175844 -0.175844,0.527531 -0.410302,1.348136 -0.879219,1.699823 -0.234458,0.586146 -0.293073,0.820604 -0.703375,1.289521 -0.234458,0 -0.293073,0.234458 -0.293073,0.410302 l -0.234458,0.527531 c -0.234458,0.117229 -0.468917,0.351688 -0.64476,0.586146 v 0.117229 c -0.937834,0 -1.875667,0.05862 -2.696271,0.05862 l -0.175844,0.117229 c -0.586146,0.117229 -0.879219,0 -1.465365,0.05862 l -0.527531,0.234458 c -0.703375,0.05862 -1.523979,-0.117229 -2.285969,-0.117229 l -0.05861,0.175844 H 67.12697 L 66.599438,41.86046 H 65.72022 l -0.234459,0.351687 c -0.468916,-0.05861 -0.996448,0.05861 -1.465364,-0.05861 l -0.527532,0.234458 c -0.761989,0 -1.230906,-0.05861 -1.934281,0.351688 -0.410302,-0.05862 -0.879219,0 -1.289521,0.117229 l -0.468916,0.351687 -0.586146,0.05861 -0.351688,0.234458 c -0.234458,0.117229 -0.527531,0.05861 -0.761989,0 l -0.468917,0.175844 c -1.172292,0 -2.227354,0.586146 -3.399646,0.527531 l -0.293073,0.586146 c -0.293073,-0.05861 -0.64476,0.05862 -0.937833,0.05862 -0.703375,0.586146 -1.817052,0.351687 -2.461813,1.055062 -0.351687,0.05862 -0.703375,-0.05861 -1.113677,-0.05861 -0.351687,0 -0.761989,0.117229 -0.879219,0.527531 -0.351687,0.117229 -0.703375,0.351687 -1.055062,0.293073 l -0.410302,0.175844 h -0.644761 l -0.117229,0.293072 0.293073,0.468917 0.175844,-0.234458 c 1.465364,-0.05861 2.989344,-0.175844 4.454708,-0.175844 l 0.234459,-0.234458 c 2.520427,0.05861 4.982239,-0.586146 7.502666,-0.586146 h 0.293073 l 0.05861,0.410302 c -0.468917,0.05862 -0.76199,0 -1.230906,0 l -0.586146,0.05862 -0.351688,0.234458 c 1.055063,0.175844 1.992896,-0.234458 2.989344,-0.117229 l 0.175844,0.234458 c -0.234458,0.117229 -0.527531,0.293073 -0.644761,0.527531 -0.703375,0.11723 -1.348135,0.293073 -2.05151,0.293073 0.351687,0.117229 0.64476,0.293073 0.937833,0.468917 h 0.117229 c -0.410302,0.293073 -0.937833,0.234458 -1.40675,0.234458 -0.527531,0 -1.817052,0.351688 -2.285968,0.76199 0.234458,0.117229 0.468916,0.234458 0.761989,0.234458 0.293073,0 0.527532,-0.117229 0.76199,-0.293073 0.703375,0 1.289521,-0.293073 1.992896,-0.293073 3.165187,0 6.154531,-0.937833 9.378333,-0.820604 l 0.293073,0.175844 0.117229,-0.234458 h 0.586146 l 0.117229,0.527531 0.586146,0.117229 0.234459,0.234458 v 0.351688 L 69.530163,50.0079 v 0.234458 l -0.468917,0.11723 c -0.05862,0.410302 -0.175844,0.820604 -0.351688,1.172291 0.05862,0.175844 -0.117229,0.703375 -0.175843,0.879219 l -0.468917,0.234458 c -0.175844,0.410303 -0.175844,0.937834 -0.468917,1.289521 -0.761989,0.468917 -0.703375,1.40675 -0.879218,2.16874 l -0.351688,0.527531 v 0.117229 l -0.175844,-0.175843 -0.527531,0.175843 -0.05861,0.293073 0.293073,0.820604 -0.468916,0.234459 c -0.293073,0.586146 -0.703375,1.113677 -0.76199,1.758437 l -0.468917,0.351688 c -0.175843,0.351687 -0.410302,0.64476 -0.64476,0.937833 -0.175844,0.76199 -0.527531,1.40675 -0.820604,2.110125 l 0.527531,0.293073 -0.234458,0.293073 -0.586146,0.175844 v 0.293073 c 0,0.410302 -0.05862,0.879219 -0.527531,0.996448 -0.05861,0.527531 -0.410302,0.879218 -0.410302,1.40675 v 0.117229 l -1.934282,0.586146 h -0.410302 l 0.234458,-0.05862 c 0.05862,-0.05861 -0.64476,-0.234458 -0.64476,-0.234458 -0.05861,-0.05862 -0.234458,-0.05862 -0.351687,0 0,0.117229 0.117229,0.234458 0.293072,0.293073 -0.234458,0 -0.410302,0.05861 -0.468916,0.117229 -0.05862,0.117229 0.351687,0.234458 0.468916,0.234458 l 0.410303,-0.117229 -0.234459,0.293073 -0.351687,0.117229 c -0.117229,0.117229 -0.175844,0.234459 -0.468917,0.234459 l -0.410302,0.293072 c 0,0 -0.175844,0 -0.175844,0.05861 l 0.410302,0.175844 0.644761,-0.05861 c 0,-0.175844 0.351687,-0.175844 0.527531,-0.117229 l 0.410302,-0.234458 1.113677,0.117229 -0.351687,0.468917 H 60.09322 v 0.05861 c -0.234459,0.175844 -0.468917,0.293073 -0.879219,0.234458 -0.468917,0.11723 -0.820604,0.175844 -1.348136,0.351688 l 0.117229,0.117229 c -0.05861,0.05861 -0.293072,0.117229 -0.527531,0.175844 0,-0.117229 -0.175844,-0.175844 -0.293073,-0.175844 l -0.234458,-0.05861 c -0.175844,0.293072 -0.527531,0 -0.703375,0.351687 l -0.703375,0.293073 c -0.527531,-0.05862 -0.820604,0.351687 -0.351688,0.410302 l -0.527531,0.117229 -0.468917,0.234459 c 0,0.05861 0.11723,0.117229 0.11723,0.117229 0.175843,0.05861 1.582593,-0.175844 1.817052,-0.175844 v 0.117229 c -2.110125,0.703375 -3.927177,1.699823 -6.330375,1.934281 l 0.175843,0.586146 0.820605,-0.117229 -2.403198,0.703375 H 47.31524 c -0.175844,0.234458 -0.527531,0.117229 -0.703375,0.351688 -0.937833,0.293073 -2.696271,0.293073 -3.341031,0.820604 h 0.175843 c 0.527532,0.117229 1.406751,-0.410302 1.934282,-0.293073 0.879219,-0.293073 2.637656,-0.351688 3.809948,-0.586146 0.175844,-0.234458 0.761989,-0.293073 1.113677,-0.234458 -0.05861,-0.05861 -0.05861,-0.175844 -0.05861,-0.234459 h 0.234459 l 0.175843,0.293073 0.293073,-0.117229 c 0.586146,0.234458 0.703375,-0.117229 0.527532,-0.351687 l 0.761989,-0.05861 c 0,0.05861 -0.05861,0.117229 0.117229,0.117229 0.175844,0.05862 0.410302,0 0.586146,-0.05861 0.527531,-0.05861 1.230906,-0.11723 1.699823,-0.351688 0.76199,0 2.285969,-0.175844 2.872115,-0.410302 0.175844,-0.117229 0.293073,-0.117229 0.527531,-0.117229 h 0.293073 V 73.3951 l -0.351688,0.351688 -0.05861,0.64476 -0.293073,0.527532 -0.117229,0.05861 c -0.05862,0.527531 -0.05862,1.113677 -0.527531,1.465365 l -0.351688,0.820604 0.05861,0.351687 c 0,0.11723 -0.05861,0.351688 -0.234459,0.351688 -0.117229,0.293073 -0.234458,0.703375 -0.468916,0.937833 0.05861,0.644761 -0.05861,1.52398 -0.11723,2.16874 l 0.11723,0.293073 c 0.410302,-0.76199 0.64476,-1.582594 1.055062,-2.344583 l 0.293073,0.293072 -0.293073,0.644761 v 0.410302 c 0,0.293073 0,0.64476 -0.234458,0.879219 -0.175844,0.879218 -0.996448,2.872114 -0.996448,3.399646 -0.351688,0.351687 -0.644761,0.64476 -0.644761,1.172291 l 0.234459,0.05862 c 0.468916,-0.703375 0.879219,-1.699823 1.523979,-2.285969 v -0.05861 c 0.527531,-0.703375 0.527531,-1.465365 0.820604,-2.227355 h 0.05862 c 0.351687,-0.703375 0.586146,-1.230906 0.879218,-1.992896 0.879219,-0.996448 1.055063,-1.992895 1.817053,-2.989343 l 0.05861,0.761989 0.175844,0.293073 -0.293073,0.175844 c -0.117229,0.410302 -0.351687,0.820604 -0.410302,1.289521 l -0.76199,0.937833 c -0.175843,1.348136 -0.468916,0.996448 -0.703375,3.458261 l -0.64476,0.351687 0.05861,0.468917 0.293073,0.293073 c 0.410302,-0.293073 0.527532,-0.879219 0.879219,-1.113677 0.05862,-0.175844 0.234458,-0.586146 0.175844,-0.76199 l 0.527531,0.234458 c 0.293073,-0.05861 0.644761,-0.05861 0.937834,-0.05861 -0.11723,0.937833 -0.351688,1.875666 -0.703375,2.754885 v 0.05862 l -0.527532,0.351687 v 0.293073 l -0.468916,0.234459 h -0.05862 z m 13.30551,-14.712261 0.351688,0.410302 c 0.879219,-0.410302 4.278864,-0.468917 5.451156,-0.468917 l 0.117229,0.175844 c 0.468917,0.117229 0.937834,0.117229 1.348136,0.351688 h 1.113677 l 0.410302,0.293073 1.113677,-0.05862 c 1.172292,0.586146 2.579042,0.351688 3.634104,1.113677 0.293073,0.527531 0.644761,1.055063 0.703375,1.641208 -0.293073,0.586146 -1.992896,1.992896 -2.579041,2.051511 l -0.351688,0.234458 -0.586146,0.05862 c -0.234458,0.117229 -0.410302,0.293073 -0.586146,0.468917 -0.64476,0.234458 -1.28952,0.937833 -1.934281,0.937833 -0.586146,0 -1.055062,0.468917 -1.641208,0.468917 l -0.468917,0.410302 -0.175844,0.05861 -0.351687,0.527532 c -0.234459,-0.05862 -0.468917,0.234458 -0.703375,0.175843 l -0.586146,0.234459 -0.117229,0.117229 c -0.410302,0 -2.989344,0.761989 -3.282417,0.937833 -0.410302,0 -0.879219,0.05862 -1.289521,0.175844 l -0.527531,0.410302 -0.05862,0.234458 c -0.586146,0.05862 -1.289521,0 -1.817052,0.351688 -0.117229,0 -0.527531,-0.117229 -0.64476,-0.05861 l -0.703375,0.234459 -0.703375,-0.05862 c -0.234459,0.410302 -0.76199,0.76199 -1.113677,0.996448 l -0.703375,-0.234458 0.05861,-0.644761 c 1.172292,-1.582594 1.934282,-4.454708 2.8135,-5.216698 v -0.468917 l 0.586146,-1.113677 0.175844,-0.05861 0.05861,-0.644761 c 0.820605,-0.820604 1.40675,-1.817052 1.699823,-2.930729 l 0.468917,-0.410302 0.234458,-0.468917 c 0.05862,0 0.586146,-0.175843 0.586146,-0.234458 z m 4.044407,-10.60924 -0.175844,-0.117229 c 0.351687,-0.527531 0.468917,-1.172292 0.761989,-1.699823 0.468917,-0.234458 0.703375,-0.64476 0.644761,-1.172292 0.468917,-0.937833 0.761989,-1.875666 1.523979,-2.579041 l 0.05862,-0.175844 0.410302,-0.468917 c 0.117229,-0.468916 0.293073,-0.937833 0.64476,-1.230906 l 0.234459,-0.586146 c 1.230906,-0.351687 2.930729,-0.293073 4.22025,-0.293073 l 0.117229,-0.293073 -0.293073,-0.527531 h 0.05861 c 0.234459,0 0.586146,0 0.586146,0.293073 l 0.468917,0.468917 v 0.05861 l 0.293073,-0.351687 C 85.883637,51.473246 85.825022,51.180173 85.766408,50.8871 l 0.586145,0.117229 v 0.05862 l 0.351688,0.586146 c -0.05862,0.175843 -0.117229,0.351687 -0.117229,0.468916 l 0.293073,0.527531 v 0.410303 c 0.351687,0.05861 0.64476,0.117229 0.996448,0.117229 0.293073,0.117229 0.586145,0.293073 0.937833,0.293073 0.117229,0.293073 0.234458,0.586145 0.234458,0.879218 l -0.175843,0.468917 -0.527532,0.351688 v 0.05861 l -0.234458,0.410302 c -0.117229,0.05862 -0.527531,0.234459 -0.586146,0.351688 -0.820604,0.293073 -2.579042,1.40675 -3.047958,2.05151 h -0.644761 l -0.468916,0.586146 c -0.586146,0.293073 -1.230907,0.293073 -1.875667,0.293073 -0.527531,0.293073 -0.996448,0.64476 -1.582594,0.76199 -0.234458,0.175843 -0.586146,0.410302 -0.879219,0.468916 l -0.410302,0.468917 -0.117229,0.05862 c -0.76199,0.05861 -1.582594,0 -2.16874,0.586145 L 76.21223,60.558506 Z m 19.577271,21.21848 c -0.293073,-0.117229 -0.586146,-0.234459 -0.937833,-0.234459 l -0.175844,0.527532 -0.468917,0.293073 v 0.293073 l -0.527531,0.293073 h -0.293073 v 0.351687 l 0.351687,0.234458 0.468917,-0.117229 0.644761,-0.703375 0.468916,-0.175844 c 0.234459,-0.175843 0.468917,-0.468916 0.468917,-0.761989 z m -31.007115,7.209594 0.64476,0.05861 0.05862,0.117229 c -0.175844,0.175844 -0.410302,0.468917 -0.644761,0.586146 -0.586146,0.05862 -1.348135,0.05862 -1.817052,0.527532 -0.410302,0 -0.76199,0 -1.172292,-0.05862 l 0.351688,-0.410302 c 0.820604,-0.293073 1.934281,-0.175844 2.579042,-0.820604 z M 83.36321,77.263663 h 0.64476 l 0.293073,0.351687 c -0.351688,0.11723 -1.523979,0.527532 -1.699823,0.937834 l -0.527531,-0.05862 -0.117229,0.175844 -0.586146,0.05862 v -0.175844 l 0.703375,-0.527531 h 0.05861 c 0.527532,0 0.937834,-0.351688 1.230907,-0.76199 z m -33.87923,15.591479 0.586146,0.05862 0.05861,0.175844 -0.527531,0.351687 c -0.351688,-0.05861 -0.644761,0.05862 -0.996448,0.05862 L 47.96,93.85159 46.846323,93.734361 47.198011,93.324059 c 0.293073,-0.117229 0.586146,-0.117229 0.937833,-0.117229 0.468917,0 0.996448,0 1.348136,-0.351688 z m 20.690948,0 -0.586146,0.11723 -0.293073,0.351687 C 69.061251,93.20683 68.826793,93.089601 68.592334,92.913757 l -0.05861,-0.527531 0.586146,-0.05861 0.468916,0.293073 0.468917,-0.527531 0.117229,0.234458 h 0.64476 L 71.17138,92.151772 Z M 54.583449,96.66509 h 0.703375 c 0.234458,0 0.410302,0.05861 0.64476,0.05861 l -0.117229,0.234458 -0.351688,-0.05861 c -0.293073,0.117229 -0.64476,0.175844 -0.996448,0.234458 l -0.410302,0.234458 c -0.703375,-0.117229 -0.820604,-0.234458 -1.582593,0.05862 l 0.293072,-0.410302 c 0.175844,-0.117229 0.234459,0 0.410303,0 v -0.05862 l 0.351687,-0.117229 0.586146,0.05861 z m 43.081719,-39.447615 0.05862,0.410302 c 0,0.703375 -0.644761,1.055063 -1.172292,1.465365 v -1.113677 l 0.703375,-0.234459 z m -21.394323,0.76199 0.527531,0.293073 -0.351687,0.527531 v 0.117229 c -0.175844,0.293073 -0.293073,0.703375 -0.468917,0.996448 -0.175844,-0.117229 -0.293073,-0.293073 -0.293073,-0.468917 0,-0.527531 0.527531,-0.937833 0.586146,-1.465364 z m 3.399646,21.218479 0.468916,-0.175843 v 0.527531 c -0.351687,0.05861 -0.703375,0.175844 -0.996447,0.410302 -0.11723,-0.05862 -0.527532,-0.234458 -0.527532,-0.410302 v -0.117229 c 0.351688,-0.11723 0.703375,-0.234459 1.055063,-0.234459 z M 39.812573,99.244132 c -0.293073,0.117229 -0.64476,0.234459 -0.937833,0.117229 -0.234458,0.05862 -0.468917,0.175844 -0.703375,0.11723 l -0.351688,0.351687 0.527532,-0.175844 0.937833,0.117229 c 0.293073,-0.175843 1.289521,-0.410302 1.582594,-0.234458 l 0.117229,-0.117229 c -0.410302,0 -0.820604,-0.05862 -1.172292,-0.175844 z M 86.645626,85.235246 c 0.11723,0 0.468917,0 0.468917,0.11723 l -0.05862,0.117229 c -0.234458,0.175844 -1.055062,0.410302 -1.465364,0.410302 0,0 -0.117229,0 -0.117229,-0.05862 0,-0.234458 0.937833,-0.586146 1.172291,-0.586146 z m 6.037303,-0.527531 -0.586146,-0.05861 -0.351688,0.410302 -0.117229,0.410302 c 0.410302,-0.05862 0.996448,-0.293073 1.055063,-0.76199 z m 5.216698,-9.495562 0.410302,0.175843 -0.410302,0.586146 -0.586146,-0.234458 z m -63.186523,19.6945 -0.293073,-0.117229 0.11723,-0.117229 c 0.410302,-0.175844 0.879218,-0.175844 1.348135,-0.175844 l 0.234458,0.293073 -0.937833,-0.117229 z M 52.766396,71.578048 c 0.175844,-0.05861 0.468917,-0.05861 0.527532,-0.175843 0,0 0,-0.05861 -0.05862,-0.05861 0.05862,-0.175844 -0.117229,-0.293073 -0.293073,-0.293073 -0.05861,0 -0.703375,0.234458 -0.703375,0.293073 z M 83.36321,87.990132 c 0.175843,-0.05862 0.468916,-0.175844 0.64476,-0.117229 l -0.234458,0.468916 -0.76199,0.05862 z m -16.470699,4.98224 0.175844,0.117229 c -0.410302,0.234458 -0.820604,0.468916 -1.289521,0.586146 l -0.234458,-0.293073 c 0.468917,0 0.996448,-0.117229 1.348135,-0.410302 z m 0.879219,-4.454709 c 0.410302,0 0.703375,0.05862 0.879219,0.468917 h -0.76199 z m 24.911199,-3.809948 0.527531,-0.293073 0.175844,-0.527531 -0.586146,0.293073 H 92.682929 Z M 53.411157,73.570944 c -0.117229,0 -0.175844,0.117229 -0.293073,0.05862 v -0.05862 c 0.117229,-0.117229 0.468917,-0.410302 0.703375,-0.293073 l 0.820604,-0.05861 c -0.468917,0.234458 -0.527531,0.117229 -0.820604,0.351687 z m 9.671406,-1.113677 c -0.05861,0.175844 -0.175843,0.351688 -0.293073,0.527531 h -0.175843 l -0.234459,-0.468916 0.05862,-0.05862 z m -11.136771,20.222032 0.586146,0.05861 0.175844,0.234459 -0.117229,0.117229 H 52.004407 Z M 81.487543,35.41285 81.83923,35.002547 v 0.527532 l -0.117229,0.175843 c -0.234458,0 -0.293073,0.175844 -0.234458,0.351688 -0.05862,0 -0.234458,0 -0.234458,-0.05861 0,-0.234458 0.351687,-0.351687 0.234458,-0.586145 z m -2.989344,19.284198 c 0.05862,-0.351688 0.175844,-0.76199 0.527531,-0.937833 l -0.117229,0.64476 z M 36.354313,94.61358 36.295698,94.261893 c 0.351688,0.117229 0.76199,0.293072 1.113677,0.293072 -0.293073,0.05862 -0.586146,0.05862 -0.879219,0.05862 l -0.175843,0.234458 -0.117229,-0.05861 z M 89.576356,83.945726 h 0.527531 l -0.293073,0.351687 H 89.400512 Z M 86.938699,50.183725 h 0.586146 l 0.175844,0.351687 -0.586146,-0.117229 z m -20.046188,4.571937 -0.175843,-0.586145 -0.175844,-0.234459 -0.05862,0.586146 z m 11.605688,-0.05861 -0.175844,0.468917 -0.351687,0.234458 c 0.05861,-0.234458 0.175844,-0.703375 0.468916,-0.703375 z m 21.21848,0.527531 0.468921,0.175844 -0.468921,0.234458 H 99.423606 Z M 50.363198,96.840934 h 0.293073 l -0.64476,0.351688 -0.234458,-0.234459 c 0.175843,-0.05861 0.410302,-0.117229 0.586145,-0.117229 z m 10.843699,-3.106573 -0.234459,0.234459 c -0.175843,0.05861 -0.410302,0.175843 -0.586146,0.175843 h -0.234458 c 0.293073,-0.175843 0.703375,-0.351687 1.055063,-0.410302 z m 20.45649,-61.428084 c 0,0 0,-0.175844 0.05861,-0.175844 0.05861,0 0.117229,0.234458 0.117229,0.293073 0,0.117229 -0.05861,0.234458 -0.175843,0.234458 l -0.293073,0.117229 c 0.05861,-0.05861 0.117229,-0.293073 0.117229,-0.351687 z m 1.113677,6.447604 c -0.05861,0.05861 -0.117229,0.117229 -0.117229,0.175844 0,0.117229 0.293073,0.117229 0.351687,0.117229 0.05862,0 0.234458,0 0.234458,-0.117229 0,-0.175844 -0.293072,-0.175844 -0.410302,-0.175844 z M 61.38274,80.54608 l 0.293073,0.117229 -0.05861,0.527531 -0.234459,-0.175844 z m 21.687397,-46.891668 -0.05862,0.293073 0.293073,0.175844 c 0,-0.117229 0.117229,-0.234459 0.117229,-0.410302 0,-0.05861 -0.293073,-0.05861 -0.351687,-0.05861 z m -26.962709,36.868574 -0.175844,-0.05862 0.468917,-0.293073 c 0.175843,0 0.468916,-0.05861 0.761989,-0.117229 -0.468916,0.175844 -0.937833,0.410302 -1.055062,0.468917 z m 2.8135,23.680292 0.586146,-0.117229 0.351687,0.234458 h -0.64476 z m 17.936063,-37.865022 0.234458,0.117229 v 0.468917 l -0.234458,-0.05861 z M 81.19447,36.233454 v 0.117229 c 0,0.351687 -0.293073,0.64476 -0.527531,0.879219 l 0.175843,-0.234459 c 0.05862,-0.293073 0.175844,-0.586145 0.351688,-0.761989 z m -35.696282,60.900553 0.117229,-0.234458 h 0.234458 l -0.05861,0.293073 -0.76199,0.117229 z m 34.992907,-18.346365 0.468917,-0.05861 v 0.468916 z m -40.737136,16.119011 0.293073,-0.468917 c 0.175843,0 0.410302,-0.05861 0.64476,-0.05861 -0.351688,0.117229 -0.703375,0.293073 -0.937833,0.527531 z m 1.582593,-0.05862 0.644761,-0.05861 0.05861,0.117229 -0.293072,0.117229 z m 3.692719,-0.937833 -0.234458,0.175844 -0.586146,0.05861 -0.175844,-0.05861 z m 11.605688,2.403198 0.293073,-0.527531 h 0.05861 c 0,0 0.05861,0 -0.175844,0.351687 l -0.175844,0.351688 H 56.51773 l -0.05862,-0.234459 z m 32.941397,-45.602147 0.410302,0.468917 v 0.293073 c -0.11723,-0.234459 -0.351688,-0.468917 -0.410302,-0.76199 z m -33.410314,40.91298 0.410302,0.234459 -0.117229,0.05861 h -0.293073 z m 3.165188,-1.055062 0.410302,0.05861 c -0.293073,0.05862 -0.527531,0.117229 -0.820604,0.117229 z M 85.649178,77.849804 85.238876,78.31872 h -0.351687 c 0.234458,-0.05861 0.527531,-0.234458 0.761989,-0.468916 z m -30.479584,-4.630552 -0.175843,-0.05862 c -0.11723,0 -0.175844,0 -0.11723,-0.05861 0,-0.05861 0,-0.117229 0.11723,-0.117229 0.175843,0.05862 0.234458,0.175844 0.175843,0.234459 z m -3.106573,23.328604 -0.175843,0.351688 -0.11723,-0.293073 z m 26.786866,-56.270001 0.410302,0.05862 c 0,0.05861 -0.234459,0.05861 -0.234459,0.05861 -0.05861,0.293073 -0.175843,0 -0.175843,-0.11723 z m -16.412084,38.568397 0.234458,-0.117229 -0.234458,0.468916 z m -6.857907,-5.802844 c -0.05861,0 -0.175843,-0.117229 -0.175843,-0.175844 l 0.117229,-0.05861 c 0.05861,0.05861 0.175844,0.05861 0.175844,0.175843 z m 23.914751,-36.63411 c 0,-0.05862 0.05862,-0.05862 0.05862,-0.05862 0.117229,0 0.175843,0.117229 0.175843,0.175844 -0.05861,0 -0.117229,0.05861 -0.117229,0.05861 -0.05861,0 -0.117229,-0.117229 -0.117229,-0.175843 z m 1.055063,-0.410303 c 0.05861,0 0.117229,-0.05861 0.175843,-0.05861 0.05861,0 0.05861,0 0.05861,0.05861 0.05861,0.05861 -0.05861,0.11723 -0.117229,0.11723 -0.05862,0 -0.117229,-0.05862 -0.117229,-0.11723 z M 51.007959,96.66509 h 0.117229 l 0.05861,0.05861 -0.293073,0.117229 -0.05861,-0.05861 z m 7.03375,-0.820604 -0.117229,0.293073 h -0.05862 l 0.05862,-0.293073 z m 23.152761,-62.834834 0.175844,0.05861 v 0.05861 c 0,0.05861 0,0.117229 -0.05861,0.117229 -0.05861,0 -0.117229,-0.175844 -0.117229,-0.234458 z m 0.879219,6.857906 c 0.05861,0 0.175843,0 0.175843,0.117229 v 0.05862 h -0.05861 c -0.05862,0 -0.117229,0 -0.117229,-0.117229 z m -2.344584,-2.227354 h 0.05861 c 0.117229,0 0.175844,0.05861 0.175844,0.175844 -0.117229,0 -0.175844,-0.11723 -0.234459,-0.175844 z m -35.93074,57.559522 0.234458,0.175844 H 43.798365 Z M 80.784168,35.647308 c 0.05861,-0.05862 0.117229,-0.05862 0.175844,-0.05862 0.05861,0 0.05861,0 0.117229,0.05862 -0.05862,0 -0.175844,0.05861 -0.234459,0.05861 z m 0.293073,-2.285969 h 0.05861 c 0.05861,0 0.05861,0 0.05861,0.05861 l 0.05862,0.05861 c 0,0.05861 -0.05862,0.05861 -0.05862,0.05861 -0.117229,0 -0.117229,-0.117229 -0.117229,-0.175844 z m -0.586146,3.106573 v -0.05861 h 0.05862 c 0.05861,0 0.117229,0 0.117229,0.05861 v 0.05862 H 80.54971 c -0.05862,0 -0.05862,0 -0.05862,-0.05862 z m -0.351688,0.468917 0.175844,0.05861 c 0,0 0,0.11723 -0.05861,0.11723 -0.05862,0 -0.11723,-0.11723 -0.11723,-0.175844 z m -0.175843,0.410302 h 0.175843 c 0,0.05861 0,0.117229 -0.117229,0.117229 z M 57.221105,95.785872 h 0.293073 l -0.05862,0.05861 z m 19.04974,-35.461824 -0.05861,0.234458 v -0.175843 z m -15.767323,7.150979 h 0.05861 c -0.05861,0.05862 -0.117229,0.05862 -0.117229,0.05862 z M 78.674043,41.03985 c 0.05861,0 0,0.05861 0.05861,0.117229 z"
       id="path887" />
  </g>
</svg>
